<?xml version="1.0" encoding="UTF-8"?>
<svg width="351px" height="153px" viewBox="0 0 351 153" version="1.1" xmlns="http://www.w3.org/2000/svg" xmlns:xlink="http://www.w3.org/1999/xlink">
    <!-- Generator: Sketch 53.2 (72643) - https://sketchapp.com -->
    <title>Group</title>
    <desc>Created with Sketch.</desc>
    <g id="Page-1" stroke="none" stroke-width="1" fill="none" fill-rule="evenodd">
        <g id="Group">
            <polygon id="Rectangle" fill="#D8D8D8" points="0 0.793034558 351 0.793034558 351 152.793035 0 152.793035"></polygon>
            <polygon id="Path" fill="#3B72C5" fill-rule="nonzero" style="mix-blend-mode: difference;" points="263.053824 0.793034558 263.053824 0.319946493 263.053824 65.3737704 198.03618 0.793034558"></polygon>
            <polygon id="Path" fill="#4A90E2" fill-rule="nonzero" style="mix-blend-mode: difference;" points="188.083532 152.793035 262.235998 83.8161591 331.083532 84.0149226 262.235998 152.793035"></polygon>
            <polygon id="Path" fill="#3B96C5" fill-rule="nonzero" style="mix-blend-mode: difference;" points="351 0.793034558 351 69.6268187 276.060354 69.6268187 276.060354 0.793034558"></polygon>
            <polygon id="Path" fill="#28A3AC" fill-rule="nonzero" style="mix-blend-mode: difference;" points="248.663997 73.625033 175.5 143.793035 175.831998 0.793034558"></polygon>
            <polygon id="Path" fill="#5070E3" fill-rule="nonzero" style="mix-blend-mode: difference;" points="143 152.793035 2.84217094e-14 152.793035 5.68434189e-14 9.60173427"></polygon>
            <polygon id="Path" fill="#66B0E3" fill-rule="nonzero" style="mix-blend-mode: difference;" points="15 0.793034558 158 0.793034558 158 143.793035"></polygon>
            <polygon id="Path" fill="#5276AB" fill-rule="nonzero" style="mix-blend-mode: difference;" points="351 85.8527655 351 152.793035 285.786961 152.795297"></polygon>
        </g>
    </g>
</svg>