<?xml version="1.0" encoding="UTF-8"?>
<svg width="760px" height="760px" viewBox="0 0 760 760" version="1.1" xmlns="http://www.w3.org/2000/svg" xmlns:xlink="http://www.w3.org/1999/xlink">
    <!-- Generator: Sketch 53.2 (72643) - https://sketchapp.com -->
    <title>Artboard</title>
    <desc>Created with Sketch.</desc>
    <g id="Artboard" stroke="none" stroke-width="1" fill="none" fill-rule="evenodd">
        <path d="M380,749 C583.793073,749 749,583.793073 749,380 C749,176.206927 583.793073,11 380,11 C176.206927,11 11,176.206927 11,380 C11,583.793073 176.206927,749 380,749 Z M173.179841,246.022935 L259.822451,159.389541 L259.822451,332.655089 L173.179841,246.022935 Z M284.603893,157.332327 L370.841549,245.026901 L370.841549,435.64864 L284.603893,347.952821 L284.603893,157.332327 Z M385.795644,34 L481.094754,129.283451 L385.361083,225.001391 L290.061972,129.717941 L385.795644,34 Z M571.698874,257.744487 L393.765482,435.64864 L393.765482,257.744487 L571.698874,257.744487 Z M370.858342,454.171522 L370.858342,725 L100,454.171522 L370.858342,454.171522 Z M492.39008,147.990492 L576.751999,234.623266 L408.026916,234.623266 L492.39008,147.990492 Z M392.753473,454.172846 L662,455.784477 L394.366163,723.387931 L392.753473,454.172846 Z" id="Oval-2" fill="#9F2893"></path>
        <g id="Group-4" transform="translate(85.000000, 16.000000)"></g>
    </g>
</svg>