<svg viewBox="0 0 124 152" version="1.1" xmlns="http://www.w3.org/2000/svg" xmlns:xlink="http://www.w3.org/1999/xlink">
    <g stroke="none" stroke-width="1" fill="white" fill-rule="evenodd">
        <polygon transform="translate(26.000000, 46.500000) rotate(-270.000000) translate(-26.000000, -46.500000) " points="26.000136 56 45 37 7 37"></polygon>
        <polygon points="41 27 60 46.2204651 60 88 41 68.7792618"></polygon>
        <polygon points="63.0477708 0 84 20.9522292 62.9522292 42 42 21.0477708"></polygon>
        <polygon transform="translate(84.500000, 68.500000) rotate(-90.000000) translate(-84.500000, -68.500000) " points="104 88 104 49 65 49"></polygon>
        <polygon transform="translate(45.000000, 107.000000) rotate(-45.000000) translate(-45.000000, -107.000000) " points="66 106.999725 24 65 24 149"></polygon>
        <polygon transform="translate(86.500000, 34.500000) rotate(-270.000000) translate(-86.500000, -34.500000) " points="77 34.4998635 96 53 96 16"></polygon>
        <polygon transform="translate(79.500000, 107.000000) rotate(-45.000000) translate(-79.500000, -107.000000) " points="79.4998642 86 38 128 121 128"></polygon>
    </g>
</svg>
