<svg xmlns="http://www.w3.org/2000/svg" viewBox="0 0 230.2 33.3">
    <g data-name="Layer 1">
      <path fill="none" stroke="#a10062" stroke-miterlimit="10" d="M0 14.7c15.3 0 30.7 14 46 14s30.7-14 46.1-14 30.7 14 46 14 30.7-14 46.1-14 29.9 13.3 44.8 14"/>
      <path stroke="#a10062" d="M222 33a.4.4 0 0 1 .1-.6l6.7-3.8-6.2-4.4a.5.5 0 0 1-.1-.7c.1-.3.5-.3.7-.2l6.8 5c.2.1.3.2.2.4a.5.5 0 0 1-.2.4l-7.4 4.1h-.2c-.2.1-.4 0-.4-.2z"/>
      <path fill="#a10062" d="M3.1 1.7L.9 1.3l.2-1 5.5 1-.2 1-2.2-.4-1.4 7.4-1.1-.2zM11.5 8.8l-.9 2.8-1-.3 1-2.8a1.7 1.7 0 0 0-1.1-2.1 1.6 1.6 0 0 0-2 1l-1 2.8-.9-.3 2.8-8.4.9.4-1.2 3.6a2.8 2.8 0 0 1 1.8-.1 2.7 2.7 0 0 1 1.5 1.3 2.6 2.6 0 0 1 .1 2.1zM13.9 7l1 .4-2.1 5.1-.9-.4zm.5-1.5a.7.7 0 0 1 .8-.4c.4.2.6.6.4.9s-.5.5-.9.4a.6.6 0 0 1-.3-.9zM18.5 13.2l-.6.7-.9.2a1.6 1.6 0 0 1-1-.2l-.5-.3a3.3 3.3 0 0 1-1.2-1.4l.9-.3a2.6 2.6 0 0 0 1.1 1.2h.6a.9.9 0 0 0 .7-.4c.1-.3-.1-.7-.7-1.1a3.5 3.5 0 0 1-1-.9 1.2 1.2 0 0 1-.2-1.4 1.3 1.3 0 0 1 .6-.7l.8-.2 1 .2.3.2a2.5 2.5 0 0 1 1.1 1.2l-.8.4a2.3 2.3 0 0 0-1-1h-.5a.7.7 0 0 0-.6.4c-.2.3 0 .6.6 1a6.5 6.5 0 0 1 1 .9c.3.2.3.4.4.6a2.8 2.8 0 0 1-.1.9zM25.5 16.4l-.6.7-1 .2-.9-.2-.5-.3a4.1 4.1 0 0 1-1.2-1.4l.9-.4a1.9 1.9 0 0 0 1.1 1.2l.6.2a.9.9 0 0 0 .7-.4c.1-.4-.1-.7-.7-1.1s-.8-.6-1-.9a1.4 1.4 0 0 1-.2-1.5.9.9 0 0 1 .6-.6 1.1 1.1 0 0 1 .8-.2 1.6 1.6 0 0 1 1 .2l.3.2a2.2 2.2 0 0 1 1.1 1.2l-.8.3a1.8 1.8 0 0 0-.9-.9h-.6a.6.6 0 0 0-.6.3c-.2.3 0 .6.6 1.1l1 .8a1.7 1.7 0 0 1 .4.7 2.8 2.8 0 0 1-.1.8zM28.3 13.4l.9.4-2.1 5-1-.4zm.4-1.6a.7.7 0 0 1 .9-.3c.4.1.5.5.4.9a.7.7 0 0 1-.9.3c-.4-.1-.5-.5-.4-.9zM29.9 18l1-2.5-.8-.3.3-.9.8.2.7-1.9 1 .3-.7 2 1.6.6-.4.9-1.6-.6-.9 2.5c-.1.4.1 1 .5 1.1l.9.3v1.1l-1.3-.5a1.8 1.8 0 0 1-1.1-2.3zM38.7 19.9l-4.1-1a1.8 1.8 0 0 0 1.2 2 1.7 1.7 0 0 0 1.4-.3l.8.7-.9.5h-1.5a2.3 2.3 0 0 1-1.6-1.3 2.8 2.8 0 0 1-.3-1.8v-.3l.3-.6a3.1 3.1 0 0 1 .9-1.1 2.4 2.4 0 0 1 2-.3 2.6 2.6 0 0 1 1.7 1.2 3.3 3.3 0 0 1 .3 1.5c0 .5-.1.7-.2.8zm-.8-1.1a1.6 1.6 0 0 0-1.2-1.5 1.6 1.6 0 0 0-1.8.8zM43.2 15.6a.8.8 0 0 1 .7-.7.7.7 0 0 1 .7.7.7.7 0 1 1-1.4 0zm.3 1.6h1l.2 5.4h-1zM50.6 20.1a1.4 1.4 0 0 1-.1.9 1.3 1.3 0 0 1-.6.7 2.5 2.5 0 0 1-.9.4h-.6a3.4 3.4 0 0 1-1.7-.5l.5-.8a2 2 0 0 0 1.6.3l.6-.2a1.1 1.1 0 0 0 .3-.7c-.1-.4-.5-.6-1.2-.5h-1.4a1.5 1.5 0 0 1-1-1.2 1.9 1.9 0 0 1 .1-.8 1.3 1.3 0 0 1 .6-.7 1.9 1.9 0 0 1 .9-.4h.4a3 3 0 0 1 1.6.3l-.5.8a2.3 2.3 0 0 0-1.3-.2l-.6.2a.6.6 0 0 0-.2.7c0 .3.4.4 1.1.4l1.3.2.7.3a2 2 0 0 1 .4.8zM59.5 15.7a2.8 2.8 0 0 1 0 2.2 2.9 2.9 0 0 1-1.6 1.5 2.8 2.8 0 0 1-2.2 0 2.9 2.9 0 0 1-1.5-1.6 2.8 2.8 0 0 1 0-2.2 2.6 2.6 0 0 1 1.6-1.5 2.8 2.8 0 0 1 2.2 0 2.4 2.4 0 0 1 1.5 1.6zm-.9.3a1.9 1.9 0 0 0-2.4-1 1.9 1.9 0 0 0-1.1 2.4 1.9 1.9 0 0 0 3.5-1.4zM65.7 12.8a2.4 2.4 0 0 1 .1 2.2 2.9 2.9 0 0 1-1.5 1.6 2.7 2.7 0 0 1-2 .1l1.6 3.4-1 .5-3.5-7.9.9-.4.3.6a2.8 2.8 0 0 1 1.3-1.5 3.3 3.3 0 0 1 2.2-.1 2.6 2.6 0 0 1 1.6 1.5zm-.9.5a1.8 1.8 0 0 0-2.4-1 1.9 1.9 0 0 0-1 2.5 2 2 0 0 0 2.5.9 1.8 1.8 0 0 0 .9-2.4zM71.3 10.6l-3.9 1.7a1.9 1.9 0 0 0 2.2.8 1.7 1.7 0 0 0 .9-1.1h1a3.6 3.6 0 0 1-.4.9A3.1 3.1 0 0 1 70 14a2.6 2.6 0 0 1-2.1 0 2.9 2.9 0 0 1-1.4-1.3v-.2l-.2-.6a3.8 3.8 0 0 1 .1-1.5 2.5 2.5 0 0 1 3.4-1.5 2.7 2.7 0 0 1 1.2.9 1.8 1.8 0 0 1 .3.8zm-1.3-.3h-.1a1.6 1.6 0 0 0-1.8-.4 1.5 1.5 0 0 0-.9 1.7zM77.1 7.9l1 2.8-1 .3-1-2.7a1.6 1.6 0 0 0-2.1-1 1.6 1.6 0 0 0-.9 2.1l1 2.8-1 .3-1.9-5.1 1-.4v.5a4.9 4.9 0 0 1 1.3-1.2 3 3 0 0 1 2.1.1 2.9 2.9 0 0 1 1.5 1.5zM85.1 7.3a1.4 1.4 0 0 1-.1.9 1.3 1.3 0 0 1-.6.7l-.9.4h-.6a3.4 3.4 0 0 1-1.7-.5l.4-.8a2.3 2.3 0 0 0 1.7.3l.6-.2a1.1 1.1 0 0 0 .3-.7c-.1-.4-.5-.5-1.2-.5h-1.4a1.5 1.5 0 0 1-1-1.2 2.5 2.5 0 0 1 .1-.8 1.3 1.3 0 0 1 .6-.7l.9-.4h.4a4.5 4.5 0 0 1 1.6.3l-.5.8a2.3 2.3 0 0 0-1.3-.2l-.5.2c-.3.2-.4.4-.3.7s.4.4 1.1.5H84l.7.3a2 2 0 0 1 .4.9zM91.6 5.9a2.9 2.9 0 0 1-.9 2.1 2.8 2.8 0 0 1-2 .8 2.6 2.6 0 0 1-2-.8 2.5 2.5 0 0 1-.9-2 3.2 3.2 0 0 1 .8-2.1 3 3 0 0 1 2-.8 2.8 2.8 0 0 1 2.1.8 3.4 3.4 0 0 1 .9 2zm-1.1 0a1.8 1.8 0 0 0-1.9-1.8 1.9 1.9 0 1 0 1.9 1.8zM92.8 6.5l.6-3.1 1 .2-.6 3.1A1.4 1.4 0 0 0 95 8.4a1.3 1.3 0 0 0 1.7-1.1l.7-3.1 1 .2-.6 3.1a3.6 3.6 0 0 1-1.1 1.6 3.2 3.2 0 0 1-1.9.3 2.3 2.3 0 0 1-1.6-1 2.2 2.2 0 0 1-.4-1.9zM101 5.8a3.7 3.7 0 0 1 2.1 0l-.5.9a1.7 1.7 0 0 0-2.2 1l-.9 2.8-1-.3 1.7-5.2 1 .3zM106.8 12.1l-.4.3a2.8 2.8 0 0 1-2.2 0 2.9 2.9 0 0 1-1.5-1.6 2.8 2.8 0 0 1-.1-2.2 2.9 2.9 0 0 1 1.6-1.5 3.3 3.3 0 0 1 2.2-.1 2.9 2.9 0 0 1 1.5 1.6.5.5 0 0 1 .2.4l-1 .2A1.9 1.9 0 0 0 106 8a1.8 1.8 0 0 0-2.4 1 1.8 1.8 0 0 0 1 2.4 1.7 1.7 0 0 0 1.7-.1zM112.7 13.2l-3.8-1.7a1.7 1.7 0 0 0 .8 2.1 2.3 2.3 0 0 0 1.4.1l.6.8-.9.2a2.6 2.6 0 0 1-1.5-.2 2.6 2.6 0 0 1-1.4-1.5 2.5 2.5 0 0 1 .1-1.9v-.2l.3-.6a2.7 2.7 0 0 1 1.2-.9 2.3 2.3 0 0 1 2 0 2.6 2.6 0 0 1 1.4 1.5 2.6 2.6 0 0 1 0 1.5 1.6 1.6 0 0 1-.2.8zm-.6-1.2a1.5 1.5 0 0 0-.9-1.7 1.7 1.7 0 0 0-1.9.4zM121.5 13.8l.9.4-2.2 5.1-.9-.4.2-.6a3.1 3.1 0 0 1-1.9 0 2.9 2.9 0 0 1-1.6-3.8 3.1 3.1 0 0 1 1.6-1.6 3.3 3.3 0 0 1 2.2.1 2.7 2.7 0 0 1 1.4 1.4zm-1.1 2.5a1.8 1.8 0 0 0-1-2.4 1.9 1.9 0 0 0-2.4 1 1.8 1.8 0 0 0 .9 2.4 1.9 1.9 0 0 0 2.5-1zM128 18.8l-.9 2.8-1-.3.9-2.8a1.5 1.5 0 0 0-1-2 1.6 1.6 0 0 0-2 1l-1 2.8-.9-.3 1.7-5.2.9.3v.5a2.5 2.5 0 0 1 1.7-.1 2.9 2.9 0 0 1 1.6 1.3 2.7 2.7 0 0 1 0 2zM134.7 14h1.1l-1 8.7h-1.1v-.6a3.2 3.2 0 0 1-1.9.5 2.6 2.6 0 0 1-1.9-1 3 3 0 0 1-.6-2.2 2.6 2.6 0 0 1 1-1.9 2.7 2.7 0 0 1 2.1-.6 3.2 3.2 0 0 1 1.8 1zm-.7 6a1.8 1.8 0 1 0-3.6-.4 1.8 1.8 0 1 0 3.6.4zM145.7 18a2.8 2.8 0 0 1-.3 2.2 2.9 2.9 0 0 1-1.7 1.4 3.4 3.4 0 0 1-2-.3v.6l-.9.3-2.3-8.5 1-.3 1 3.8a3.3 3.3 0 0 1 1.6-1.2 2.6 2.6 0 0 1 2.1.3 2.9 2.9 0 0 1 1.5 1.7zm-1 .3a1.9 1.9 0 0 0-2.3-1.3 1.9 1.9 0 0 0 1 3.6 1.9 1.9 0 0 0 1.3-2.3zM147.1 17.9L146 15l.9-.4 1.2 2.9a1.6 1.6 0 0 0 2 .8 1.5 1.5 0 0 0 .8-1.9l-1.2-3 1-.3 1.2 2.9a2.5 2.5 0 0 1-.1 1.9 2 2 0 0 1-1.4 1.3 2.1 2.1 0 0 1-1.9 0 2.5 2.5 0 0 1-1.4-1.3zM151.4 11a.7.7 0 0 1 .3-.9.7.7 0 0 1 .9.4.8.8 0 0 1-.3.9c-.4.1-.8 0-.9-.4zm.8 1.4l.9-.4 2.2 5-.9.4zM156.9 16.3l-3.7-8 1-.5 3.6 8.1zM158.7 13.4l-1.1-2.4-.8.3-.4-.9.8-.3-.9-1.9 1-.5.8 2 1.6-.7.4.9-1.6.7 1.1 2.4a.8.8 0 0 0 1.1.4l.9-.3.6.8-1.1.5a1.8 1.8 0 0 1-2.4-1zM163 5.9a.6.6 0 0 1 .3-.9.6.6 0 0 1 .9.4.6.6 0 0 1-.3.8.6.6 0 0 1-.9-.3zm.7 1.4l1-.4 2 5.1-1 .4zM172.4 6.9l.9 2.8-1 .3-.9-2.8a1.8 1.8 0 0 0-2-1.1 1.7 1.7 0 0 0-1.1 2.1l.9 2.8-1 .3-1.6-5.2 1-.3v.5a2.6 2.6 0 0 1 1.4-1.1 2.8 2.8 0 0 1 2 .1 2.9 2.9 0 0 1 1.4 1.6zM176.6.4L182 0v1.1l-4.3.2.2 2 3.7-.2v1.1l-3.8.2.2 3.4 4.3-.3v1.1l-5.3.3zM183.2 8.8l.9-8.8h1l-.8 8.8zM195.3 8.5l-.8 2.8-1-.3.8-2.8a1.5 1.5 0 0 0-1.1-2 1.6 1.6 0 0 0-2 1.1l-.8 2.8-1-.2.8-2.9a1.6 1.6 0 0 0-1.1-2 1.6 1.6 0 0 0-2 1.2l-.8 2.8-1-.3 1.5-5.3 1 .3-.2.5a3.7 3.7 0 0 1 1.8-.2 2.9 2.9 0 0 1 1.6 1.3l.1.4.4-.2a2.4 2.4 0 0 1 2-.3 2.8 2.8 0 0 1 1.6 1.2 3.1 3.1 0 0 1 .2 2.1zM197.2 11.8a.6.6 0 0 1-.9.4.6.6 0 0 1-.4-.9.7.7 0 0 1 .9-.4.7.7 0 0 1 .4.9zm-.5-2l2.4-6 1 .4-2.4 6zM209.9 6.5a4.3 4.3 0 0 1 1.9 1.3 6.7 6.7 0 0 1 1.1 1.8 5.4 5.4 0 0 1 .4 2.2 8.7 8.7 0 0 1-.5 2.2 7.2 7.2 0 0 1-1.1 1.5 6.9 6.9 0 0 1-1.3 1.1l-1.6.6a5.4 5.4 0 0 1-1.8 0h-.2a.2.2 0 0 1 0-.3l.2-.5a3.9 3.9 0 0 0 .4-.9 1.4 1.4 0 0 0 .2-.6.7.7 0 0 0-.1-.5l.9.2h1l.9-.5a6.3 6.3 0 0 0 .7-1.2 1.9 1.9 0 0 0 .2-.8 2.2 2.2 0 0 0-.1-.8l.3-.4a1.3 1.3 0 0 0 .3-1 3.1 3.1 0 0 0-1.7-.1l-.6-.4-.6-.3-.7-.3-.7-.2a2.9 2.9 0 0 0-1.1-1.1 2.1 2.1 0 0 0-.6.8 1.3 1.3 0 0 0-.1.5l-.7.4a5.6 5.6 0 0 0-.5.8 3.5 3.5 0 0 0-.3 1.3 1.8 1.8 0 0 0 .2 1 1.9 1.9 0 0 0 .6.7l.7.6h-.3l-.3.4-.8-.2c-.3-.1-.5-.4-.5-.9s-.3-.8-.6-.9-.3 0-.1.3a3.6 3.6 0 0 1 .2 1 1.8 1.8 0 0 0 1.4 1.4l-.2.6-.2.4-.2.1h-.3a4.5 4.5 0 0 1-1-1.4 5.2 5.2 0 0 1-.6-1.6 3.7 3.7 0 0 1-.1-1.8 4.7 4.7 0 0 1 .4-1.7 6.2 6.2 0 0 1 1.4-1.8 5.7 5.7 0 0 1 1.8-1.2 5.3 5.3 0 0 1 2.2-.3 4.1 4.1 0 0 1 2.1.5zm-6.5 5.9zm.1.3zm0 .4c-.1.1-.1.1 0 .1zm.2.4zm.3.3zm.4.3zm.4.1z"/>
    </g>
</svg>
