<svg viewBox="0 0 258 148" version="1.1" xmlns="http://www.w3.org/2000/svg" xmlns:xlink="http://www.w3.org/1999/xlink">
    <g >
        <path d="M148.54,49.945 L148.54,29.335 L150.34,29.335 L150.34,49.945 L148.54,49.945 Z M149.485,22 C149.875,22 150.205,22.1425002 150.475,22.4275 C150.745,22.7124998 150.88,23.0499998 150.88,23.44 C150.88,23.8599998 150.745,24.2125002 150.475,24.4975 C150.205,24.7824998 149.875,24.925 149.485,24.925 C149.065,24.925 148.7125,24.7750002 148.4275,24.475 C148.1425,24.1749998 148,23.8300002 148,23.44 C148,23.0200002 148.1425,22.675 148.4275,22.405 C148.7125,22.135 149.065,22 149.485,22 Z M176.665,38.695 L176.665,49.945 L174.865,49.945 L174.865,38.695 C174.865,36.4750002 174.115,34.5625002 172.615,32.9575 C171.115,31.3524998 169.315,30.55 167.215,30.55 C165.115,30.55 163.315,31.3524998 161.815,32.9575 C160.315,34.5625002 159.565,36.4750002 159.565,38.695 L159.565,49.945 L157.765,49.945 L157.765,29.335 L159.565,29.335 L159.565,33.16 C159.655,33.07 159.805,32.845 160.015,32.485 C160.225,32.125 160.405,31.8699998 160.555,31.72 C162.295,29.83 164.515,28.885 167.215,28.885 C169.825,28.885 172.0525,29.8375002 173.8975,31.7425 C175.7425,33.6474998 176.665,35.9649998 176.665,38.695 Z" id="in" stroke="#1F306E" fill="#1F306E" fill-rule="nonzero"></path>
        <path d="M32.66,50.552 L0,50.552 L0,0 L33.299,0 L33.299,9.23 L9.514,9.23 L9.514,16.685 L30.246,16.685 L30.246,26.128 L9.514,26.128 L9.514,41.18 L32.66,41.18 L32.66,50.552 Z M77.177,50.552 L41.89,50.552 L41.89,0 L51.404,0 L51.404,41.251 L77.177,41.251 L77.177,50.552 Z M129.93,50.552 L120.487,50.552 L120.487,16.756 L107.281,34.79 L94.146,16.756 L94.146,50.552 L84.703,50.552 L84.703,0 L93.578,0 L107.281,18.815 L120.984,0 L129.93,0 L129.93,50.552 Z" id="ELM" fill="#1F306E" fill-rule="nonzero"></path>
        <path d="M21.3,118.54 C19.667,118.54 17.963,118.327 16.188,117.972 C10.934,116.907 5.822,114.351 1.349,110.446 L0,109.239 L6.248,102.139 L7.597,103.346 C10.863,106.186 14.484,108.103 18.034,108.813 L18.105,108.813 C19.17,109.026 20.235,109.168 21.3,109.168 C23.075,109.168 24.708,108.813 26.057,108.174 C27.761,107.464 29.749,105.902 29.749,102.991 C29.749,101.429 28.968,100.222 27.335,99.228 C25.347,98.021 22.649,97.382 20.732,97.027 C19.88,96.885 12.638,95.394 9.301,93.548 C7.1,92.199 5.396,90.495 4.189,88.507 C2.982,86.448 2.414,84.176 2.414,81.691 C2.414,78.993 3.266,76.295 4.899,73.81 C6.461,71.751 8.591,70.047 11.147,68.84 C13.703,67.633 16.543,66.994 19.596,66.994 C20.803,66.994 22.081,67.136 23.359,67.278 C28.045,68.13 32.66,70.26 36.707,73.668 L38.056,74.804 L32.021,82.117 L30.672,80.981 C26.057,77.218 22.081,76.366 19.525,76.366 C17.892,76.366 16.401,76.721 15.123,77.289 C13.135,78.212 11.857,79.916 11.857,81.62 C11.857,83.182 12.425,84.176 13.774,85.099 C15.123,86.022 17.182,86.732 20.448,87.442 C20.874,87.513 21.442,87.655 22.01,87.797 C24.992,88.365 28.968,89.217 31.737,90.85 C34.151,92.128 35.997,93.903 37.275,95.962 C38.553,98.021 39.192,100.435 39.192,102.991 C39.192,106.186 38.34,109.026 36.636,111.44 C35.145,113.499 32.944,115.274 30.033,116.694 C27.548,117.972 24.779,118.54 21.3,118.54 Z M56.942,118.114 L47.499,118.114 L47.499,67.562 L65.604,67.562 C69.083,67.562 72.349,68.911 74.834,71.396 C77.248,73.881 78.668,77.076 78.668,80.555 C78.668,87.726 72.775,93.477 65.604,93.477 L56.942,93.477 L56.942,118.114 Z M56.942,84.176 L65.604,84.176 C67.592,84.176 69.154,82.543 69.154,80.555 C69.154,78.567 67.521,76.863 65.604,76.863 L56.942,76.863 L56.942,84.176 Z M128.155,118.114 L116.937,118.114 L98.974,93.406 L94.927,93.406 L94.927,118.114 L85.697,118.114 L85.697,67.562 L103.802,67.562 C107.21,67.562 110.405,68.911 112.89,71.396 C115.375,73.881 116.724,77.076 116.724,80.484 C116.724,85.525 113.742,90.069 109.34,92.199 L128.155,118.114 Z M94.927,84.176 L103.802,84.176 C105.79,84.176 107.494,82.543 107.494,80.484 C107.494,78.425 105.79,76.792 103.802,76.792 L94.927,76.792 L94.927,84.176 Z M144.769,118.114 L135.255,118.114 L135.255,67.562 L144.769,67.562 L144.769,118.114 Z M200.078,118.114 L190.919,118.114 L168.483,84.957 L168.483,118.114 L158.969,118.114 L158.969,67.562 L168.199,67.562 L190.564,100.648 L190.564,67.562 L200.078,67.562 L200.078,118.114 Z M235.294,118.895 C220.739,118.895 208.882,107.038 208.882,92.412 C208.882,77.857 220.739,66 235.294,66 C238.844,66 242.323,66.71 245.518,68.059 C248.713,69.408 251.624,71.325 254.038,73.81 L255.387,75.159 L248.358,81.336 L247.151,80.2 C244.098,77.076 239.909,75.443 235.294,75.443 C225.922,75.443 218.325,83.04 218.325,92.412 C218.325,101.855 225.922,109.523 235.294,109.523 C240.051,109.523 244.382,107.606 247.719,104.198 L247.719,93.69 L233.874,93.69 L233.874,84.247 L257.02,84.247 L257.02,107.535 L256.665,107.961 C251.553,114.848 243.601,118.895 235.294,118.895 Z" id="SPRING" fill="#1F306E" fill-rule="nonzero"></path>
        <path d="M206.96,48.275 L207.41,50.075 L204.35,50.075 C202.61,50.075 201.1325,49.4374998 199.9175,48.1625 C198.7025,46.8875002 198.095,45.35 198.095,43.55 L198.095,31.22 L194,31.22 L194,29.42 L198.095,29.42 L198.095,21.455 L199.895,21.455 L199.895,29.42 L205.835,29.42 L205.835,31.22 L199.895,31.22 L199.895,43.55 C199.895,44.8699998 200.33,45.9875002 201.2,46.9025 C202.07,47.8174998 203.12,48.275 204.35,48.275 L206.96,48.275 Z M221.855,28.97 C224.615,28.97 226.955,29.9225002 228.875,31.8275 C230.795,33.7324998 231.755,36.0499998 231.755,38.78 L231.755,50.03 L229.955,50.03 L229.955,38.78 C229.955,36.53 229.1675,34.6099998 227.5925,33.02 C226.0175,31.4300002 224.105,30.635 221.855,30.635 C219.635,30.635 217.7375,31.4374998 216.1625,33.0425 C214.5875,34.6475002 213.8,36.5600002 213.8,38.78 L213.8,50.03 L212,50.03 L212,17 L213.8,17 L213.8,33.38 C214.7,32.0600002 215.8625,30.995 217.2875,30.185 C218.7125,29.375 220.235,28.97 221.855,28.97 Z M255.74,40.265 L237.875,40.265 C238.025,42.605 238.8725,44.5999998 240.4175,46.25 C241.9625,47.9000002 243.785,48.725 245.885,48.725 C247.085,48.725 248.3075,48.4625002 249.5525,47.9375 C250.7975,47.4124998 251.78,46.7300002 252.5,45.89 L254.075,46.835 L253.67,47.285 C252.77,48.275 251.6,49.0475002 250.16,49.6025 C248.72,50.1574998 247.295,50.435 245.885,50.435 C243.125,50.435 240.8,49.3699998 238.91,47.24 C237.17,45.2900002 236.225,42.965 236.075,40.265 C236.075,40.2050002 236.0675,40.1075 236.0525,39.9725 C236.0375,39.8375 236.03,39.725 236.03,39.635 C236.03,39.545 236.0375,39.41 236.0525,39.23 C236.0675,39.05 236.075,38.915 236.075,38.825 C236.255,36.2749998 237.2,34.0850002 238.91,32.255 C240.77,30.2150002 243.095,29.195 245.885,29.195 C248.675,29.195 251.015,30.2150002 252.905,32.255 C254.585,34.1149998 255.515,36.305 255.695,38.825 C255.725,39.005 255.74,39.275 255.74,39.635 L255.74,40.265 Z M237.92,38.645 L253.895,38.645 C253.655,36.4549998 252.77,34.6099998 251.24,33.11 C249.71,31.6100002 247.925,30.86 245.885,30.86 C243.845,30.86 242.0675,31.6100002 240.5525,33.11 C239.0375,34.6099998 238.16,36.4549998 237.92,38.645 Z" id="the" stroke="#1F306E" fill="#1F306E" fill-rule="nonzero"></path>
        <path d="M159.216779,142.668456 C160.589933,142.668456 161.808054,142.092617 163.048322,140.453691 L166.08255,142.690604 C164.111409,145.326174 161.785906,146.477852 159.216779,146.477852 C154.698658,146.477852 151,142.779195 151,138.261074 C151,133.742953 154.698658,130.066443 159.216779,130.066443 C161.830201,130.066443 164.2,131.284564 166.171141,133.920134 L163.092617,136.179195 C161.852349,134.518121 160.589933,133.853691 159.216779,133.853691 C156.758389,133.853691 154.809396,135.824832 154.809396,138.261074 C154.809396,140.719463 156.758389,142.668456 159.216779,142.668456 Z M177.02349,146.256376 L177.02349,139.545638 L172.128859,139.545638 L172.128859,146.256376 L168.297315,146.256376 L168.297315,130.487248 L172.128859,130.487248 L172.128859,135.758389 L177.02349,135.758389 L177.02349,130.487248 L180.877181,130.487248 L180.877181,146.256376 L177.02349,146.256376 Z M185.195973,146.256376 L185.195973,130.487248 L189.049664,130.487248 L189.049664,146.256376 L185.195973,146.256376 Z M200.5,142.668456 C201.873154,142.668456 203.091275,142.092617 204.331544,140.453691 L207.365772,142.690604 C205.394631,145.326174 203.069128,146.477852 200.5,146.477852 C195.981879,146.477852 192.283221,142.779195 192.283221,138.261074 C192.283221,133.742953 195.981879,130.066443 200.5,130.066443 C203.113423,130.066443 205.483221,131.284564 207.454362,133.920134 L204.375839,136.179195 C203.13557,134.518121 201.873154,133.853691 200.5,133.853691 C198.041611,133.853691 196.092617,135.824832 196.092617,138.261074 C196.092617,140.719463 198.041611,142.668456 200.5,142.668456 Z M219.613423,146.256376 L218.262416,142.668456 L213.832886,142.668456 L212.437584,146.256376 L208.362416,146.256376 L214.430872,130.487248 L217.66443,130.487248 L223.755034,146.256376 L219.613423,146.256376 Z M216.778523,138.903356 L216.047651,136.6 L215.294631,138.903356 L216.778523,138.903356 Z M231.861074,146.5 C227.320805,146.5 223.622148,142.801342 223.622148,138.238926 C223.622148,133.698658 227.320805,130 231.861074,130 C234.075839,130 236.157718,130.863758 237.708054,132.436242 L238.438926,133.189262 L235.692617,135.581208 L235.050336,134.961074 C234.186577,134.119463 233.057047,133.654362 231.861074,133.654362 C229.336242,133.654362 227.27651,135.714094 227.27651,138.238926 C227.27651,140.785906 229.336242,142.845638 231.861074,142.845638 C233.079195,142.845638 234.186577,142.380537 235.050336,141.538926 L235.050336,139.589933 L230.975168,139.589933 L230.975168,135.93557 L238.704698,135.93557 L238.704698,142.845638 L238.527517,143.111409 C236.932886,145.237584 234.430201,146.5 231.861074,146.5 Z M248.981208,130.066443 C253.477181,130.066443 257.197987,133.742953 257.197987,138.283221 C257.197987,142.779195 253.477181,146.455705 248.981208,146.455705 C244.463087,146.455705 240.786577,142.779195 240.786577,138.283221 C240.786577,133.742953 244.463087,130.066443 248.981208,130.066443 Z M248.981208,142.646309 C251.395302,142.646309 253.322148,140.675168 253.322148,138.283221 C253.322148,135.869128 251.395302,133.853691 248.981208,133.853691 C246.567114,133.853691 244.618121,135.869128 244.618121,138.283221 C244.618121,140.675168 246.567114,142.646309 248.981208,142.646309 Z" id="CHICAGO" fill="#1F306E" fill-rule="nonzero"></path>
        <path d="M11.2546934,146.137046 L9.6232791,141.862328 L3.61389237,141.862328 L1.9824781,146.137046 L0,146.137046 L5.6583229,131.433667 L7.57884856,131.433667 L13.2578223,146.137046 L11.2546934,146.137046 Z M8.90050063,140.045056 L6.62891114,134.097622 L4.33667084,140.045056 L8.90050063,140.045056 Z M15.2196496,146.137046 L15.2196496,131.433667 L20.3410513,131.433667 C21.2703379,131.433667 22.1583229,131.805382 22.8191489,132.466208 C23.479975,133.127034 23.8516896,134.015019 23.8516896,134.944305 C23.8516896,136.885482 22.261577,138.434293 20.3410513,138.434293 L17.057572,138.434293 L17.057572,146.137046 L15.2196496,146.137046 Z M20.3410513,136.637672 C21.2496871,136.637672 21.9931164,135.873592 21.9931164,134.944305 C21.9931164,134.015019 21.2496871,133.230288 20.3410513,133.230288 L17.057572,133.230288 L17.057572,136.637672 L20.3410513,136.637672 Z M31.8435544,138.310388 L37.5225282,146.137046 L35.3954944,146.137046 L29.7784731,138.413642 L27.6720901,138.413642 L27.6720901,146.137046 L25.8961202,146.137046 L25.8961202,131.433667 L30.9968711,131.433667 C31.9261577,131.433667 32.7934919,131.805382 33.4543179,132.466208 C34.1151439,133.127034 34.4868586,133.994368 34.4868586,134.923655 C34.4868586,136.555069 33.3510638,137.918023 31.8435544,138.310388 Z M27.6720901,133.209637 L27.6720901,136.637672 L30.9968711,136.637672 C31.9468085,136.637672 32.7108886,135.873592 32.7108886,134.923655 C32.7108886,133.973717 31.9468085,133.209637 30.9968711,133.209637 L27.6720901,133.209637 Z M39.5876095,146.137046 L39.5876095,131.433667 L41.4461827,131.433667 L41.4461827,146.137046 L39.5876095,146.137046 Z M45.4730914,146.137046 L45.4730914,131.433667 L47.3316646,131.433667 L47.3316646,144.340426 L55.3854819,144.340426 L55.3854819,146.137046 L45.4730914,146.137046 Z M69.1389237,138.021277 L63.8110138,144.319775 L69.9649562,144.319775 L69.9649562,146.137046 L61.3742178,146.137046 L61.3742178,144.319775 L67.6520651,136.968085 C67.9618273,136.534418 68.1476846,136.018148 68.1476846,135.481227 C68.1476846,134.118273 67.0325407,133.003129 65.669587,133.003129 C64.5750939,133.003129 63.6458073,133.725907 63.3153942,134.696496 L61.5394243,134.324781 C62.0350438,132.507509 63.7077597,131.185857 65.669587,131.185857 C68.0444305,131.185857 69.9649562,133.106383 69.9649562,135.481227 C69.9649562,136.410513 69.6758448,137.277847 69.1389237,138.021277 Z M75.5819775,136.782228 C78.2252816,136.782228 80.3729662,138.929912 80.3729662,141.573217 C80.3729662,144.216521 78.2252816,146.343554 75.5819775,146.343554 C72.9180225,146.343554 70.7703379,144.216521 70.7703379,141.573217 C70.7703379,140.767835 70.9974969,139.941802 71.3692115,139.239675 L76.0982478,131.433667 L78.2665832,131.433667 L75.0244055,136.802879 C75.2102628,136.782228 75.3961202,136.782228 75.5819775,136.782228 Z M75.5819775,144.546934 C77.1927409,144.546934 78.514393,143.18398 78.514393,141.573217 C78.514393,139.941802 77.1927409,138.599499 75.5819775,138.599499 C73.9505632,138.599499 72.6289111,139.941802 72.6289111,141.573217 C72.6289111,143.18398 73.9505632,144.546934 75.5819775,144.546934 Z M82.2108886,147.5 L81.1163955,147.5 L82.3967459,146.137046 C81.9217772,145.889237 81.6946183,145.311014 81.9011264,144.794743 C82.0663329,144.381727 82.4586984,144.113267 82.9130163,144.113267 C83.0369212,144.113267 83.1814768,144.133917 83.3053817,144.19587 C83.5738423,144.299124 83.8010013,144.505632 83.9042553,144.774093 C84.1314143,145.372966 83.8836045,145.744681 83.6977472,145.930538 C83.6357947,146.013141 82.2108886,147.5 82.2108886,147.5 Z M96.8110138,138.021277 L91.4831039,144.319775 L97.6370463,144.319775 L97.6370463,146.137046 L89.0463079,146.137046 L89.0463079,144.319775 L95.3241552,136.968085 C95.6339174,136.534418 95.8197747,136.018148 95.8197747,135.481227 C95.8197747,134.118273 94.7046308,133.003129 93.3416771,133.003129 C92.247184,133.003129 91.3178974,133.725907 90.9874844,134.696496 L89.2115144,134.324781 C89.7071339,132.507509 91.3798498,131.185857 93.3416771,131.185857 C95.7165207,131.185857 97.6370463,133.106383 97.6370463,135.481227 C97.6370463,136.410513 97.3479349,137.277847 96.8110138,138.021277 Z M103.584481,131.020651 C106.248436,131.020651 108.437422,133.147685 108.437422,135.81164 L108.437422,141.531915 C108.437422,144.19587 106.248436,146.343554 103.584481,146.343554 C100.899875,146.343554 98.7315394,144.19587 98.7315394,141.531915 L98.7315394,135.81164 C98.7315394,133.147685 100.899875,131.020651 103.584481,131.020651 Z M106.599499,141.531915 L106.599499,135.81164 C106.599499,134.159574 105.236546,132.796621 103.584481,132.796621 C101.911765,132.796621 100.569462,134.159574 100.569462,135.81164 L100.569462,141.531915 C100.569462,143.18398 101.911765,144.546934 103.584481,144.546934 C105.236546,144.546934 106.599499,143.18398 106.599499,141.531915 Z M114.653317,146.137046 L112.774093,146.137046 L112.774093,133.953066 L111.163329,135.171464 L110.068836,133.684606 L113.083855,131.433667 L114.653317,131.433667 L114.653317,146.137046 Z M121.323529,131 C123.966834,131 126.114518,133.147685 126.114518,135.790989 C126.114518,136.57572 125.887359,137.381101 125.536295,138.083229 L125.515645,138.124531 L120.683354,146.137046 L118.494368,146.137046 L121.901752,140.499374 C121.715895,140.540676 121.509387,140.561327 121.323529,140.561327 C118.680225,140.561327 116.51189,138.434293 116.51189,135.790989 C116.51189,133.147685 118.680225,131 121.323529,131 Z M121.323529,138.764706 C122.954944,138.764706 124.276596,137.401752 124.276596,135.790989 C124.276596,134.159574 122.954944,132.817272 121.323529,132.817272 C119.692115,132.817272 118.370463,134.159574 118.370463,135.790989 C118.370463,137.401752 119.692115,138.764706 121.323529,138.764706 Z" id="APRIL-26,-2019" fill="#1F306E" fill-rule="nonzero"></path>
        <polygon fill="#F48780" points="138.5 130 140.048913 135.773585 146 134.25 141.679348 138.5 146 142.75 140.048913 141.226415 138.5 147 136.951087 141.226415 131 142.75 135.320652 138.5 131 134.25 136.951087 135.773585"></polygon>
    </g>
</svg>
