<?xml version="1.0" encoding="UTF-8"?>
<svg viewBox="0 0 86 86" version="1.1" xmlns="http://www.w3.org/2000/svg" xmlns:xlink="http://www.w3.org/1999/xlink">
    <!-- Generator: Sketch 53 (72520) - https://sketchapp.com -->
    <title>camera</title>
    <desc>Created with Sketch.</desc>
    <defs>
        <polygon id="path-1" points="0 52.5383 69.701 52.5383 69.701 0.0003 0 0.0003"></polygon>
    </defs>
    <g id="camera" stroke="none" stroke-width="1" fill="none" fill-rule="evenodd">
        <g id="Group-14" transform="translate(8.000000, 17.000000)">
            <path d="M17.0747,9.1071 C24.1737,9.1071 29.9467,14.8811 29.9467,21.9781 C29.9467,29.0771 24.1737,34.8501 17.0747,34.8501 C9.9767,34.8501 4.2037,29.0771 4.2037,21.9781 C4.2037,14.8811 9.9767,9.1071 17.0747,9.1071 M17.0747,37.3021 C25.5247,37.3021 32.3987,30.4281 32.3987,21.9781 C32.3987,13.5291 25.5247,6.6551 17.0747,6.6551 C8.6257,6.6551 1.7517,13.5291 1.7517,21.9781 C1.7517,30.4281 8.6257,37.3021 17.0747,37.3021" id="Fill-1" fill="#75D3BE"></path>
            <path d="M26.8823,44.6569 L19.4253,44.6569 C18.7473,44.6569 18.1993,44.1089 18.1993,43.4309 C18.1993,42.7539 18.7473,42.2059 19.4253,42.2059 L26.8823,42.2059 C27.5603,42.2059 28.1083,42.7539 28.1083,43.4309 C28.1083,44.1089 27.5603,44.6569 26.8823,44.6569 M26.8823,48.3349 L19.4253,48.3349 C18.7473,48.3349 18.1993,47.7869 18.1993,47.1089 C18.1993,46.4309 18.7473,45.8839 19.4253,45.8839 L26.8823,45.8839 C27.5603,45.8839 28.1083,46.4309 28.1083,47.1089 C28.1083,47.7869 27.5603,48.3349 26.8823,48.3349 M17.0743,39.7539 C12.0103,39.7539 7.4443,37.6129 4.2033,34.2019 L4.2033,50.7869 L29.9463,50.7869 L29.9463,34.2019 C26.7053,37.6129 22.1403,39.7539 17.0743,39.7539" id="Fill-3" fill="#75D3BE"></path>
            <mask id="mask-2" fill="white">
                <use xlink:href="#path-1"></use>
            </mask>
            <g id="Clip-6"></g>
            <polygon id="Fill-5" fill="#75D3BE" mask="url(#mask-2)" points="12.785 4.2033 22.592 4.2033 22.592 1.7513 12.785 1.7513"></polygon>
            <path d="M17.0747,32.3981 C22.8197,32.3981 27.4947,27.7231 27.4947,21.9781 C27.4947,16.2331 22.8197,11.5581 17.0747,11.5581 C11.3297,11.5581 6.6557,16.2331 6.6557,21.9781 C6.6557,27.7231 11.3297,32.3981 17.0747,32.3981" id="Fill-7" fill="#BB8A9F" mask="url(#mask-2)"></path>
            <path d="M63.0454,14.0105 L39.7534,14.0105 C39.0754,14.0105 38.5274,13.4615 38.5274,12.7845 C38.5274,12.1075 39.0754,11.5585 39.7534,11.5585 L63.0454,11.5585 C63.7234,11.5585 64.2714,12.1075 64.2714,12.7845 C64.2714,13.4615 63.7234,14.0105 63.0454,14.0105 M61.8094,9.1075 L40.9904,9.1075 C37.6054,9.1075 34.8504,11.8585 34.8504,15.2405 L34.8504,26.2645 C34.8504,29.6465 37.6054,32.3985 40.9904,32.3985 L61.8094,32.3985 C65.1934,32.3985 67.9484,29.6465 67.9484,26.2645 L67.9484,15.2405 C67.9484,11.8585 65.1934,9.1075 61.8094,9.1075" id="Fill-8" fill="#75D3BE" mask="url(#mask-2)"></path>
            <path d="M17.0747,33.0983 C10.9437,33.0983 5.9547,28.1103 5.9547,21.9783 C5.9547,15.8473 10.9437,10.8593 17.0747,10.8593 C23.2067,10.8593 28.1947,15.8473 28.1947,21.9783 C28.1947,28.1103 23.2067,33.0983 17.0747,33.0983 M17.0747,9.8073 C10.3637,9.8073 4.9037,15.2673 4.9037,21.9783 C4.9037,28.6903 10.3637,34.1503 17.0747,34.1503 C23.7867,34.1503 29.2467,28.6903 29.2467,21.9783 C29.2467,15.2673 23.7867,9.8073 17.0747,9.8073" id="Fill-9" fill="#21316A" mask="url(#mask-2)"></path>
            <path d="M26.8823,43.9567 C27.1723,43.9567 27.4073,43.7217 27.4073,43.4317 C27.4073,43.1417 27.1723,42.9047 26.8823,42.9047 L19.4253,42.9047 C19.1353,42.9047 18.8993,43.1417 18.8993,43.4317 C18.8993,43.7217 19.1353,43.9567 19.4253,43.9567 L26.8823,43.9567 Z" id="Fill-10" fill="#21316A" mask="url(#mask-2)"></path>
            <path d="M39.7534,12.2585 C39.4634,12.2585 39.2284,12.4945 39.2284,12.7845 C39.2284,13.0745 39.4634,13.3105 39.7534,13.3105 L63.0454,13.3105 C63.3354,13.3105 63.5704,13.0745 63.5704,12.7845 C63.5704,12.4945 63.3354,12.2585 63.0454,12.2585 L39.7534,12.2585 Z" id="Fill-11" fill="#21316A" mask="url(#mask-2)"></path>
            <path d="M26.8823,47.6345 C27.1723,47.6345 27.4073,47.3995 27.4073,47.1095 C27.4073,46.8195 27.1723,46.5825 26.8823,46.5825 L19.4253,46.5825 C19.1353,46.5825 18.8993,46.8195 18.8993,47.1095 C18.8993,47.3995 19.1353,47.6345 19.4253,47.6345 L26.8823,47.6345 Z" id="Fill-12" fill="#21316A" mask="url(#mask-2)"></path>
            <path d="M17.0747,38.0017 C8.2397,38.0017 1.0517,30.8147 1.0517,21.9787 C1.0517,13.1437 8.2397,5.9547 17.0747,5.9547 C25.9107,5.9547 33.0977,13.1437 33.0977,21.9787 C33.0977,30.8147 25.9107,38.0017 17.0747,38.0017 L17.0747,38.0017 Z M30.6467,34.2017 L30.6467,50.7867 L30.6467,51.4867 L29.9467,51.4867 L4.2037,51.4867 L3.5037,51.4867 L3.5037,50.7867 L3.5037,34.2017 L3.5037,32.4487 L4.7107,33.7197 C7.9787,37.1597 12.3707,39.0537 17.0747,39.0537 C21.7797,39.0537 26.1717,37.1597 29.4387,33.7197 L30.6467,32.4487 L30.6467,34.2017 Z M12.0847,4.2037 L12.0847,1.7517 L12.0847,1.0517 L12.7847,1.0517 L22.5917,1.0517 L23.2917,1.0517 L23.2917,1.7517 L23.2917,4.2037 L23.2917,4.9027 L22.5917,4.9027 L12.7847,4.9027 L12.0847,4.9027 L12.0847,4.2037 Z M34.1497,15.2407 C34.1497,11.4727 37.2187,8.4067 40.9907,8.4067 L61.8087,8.4067 C65.5807,8.4067 68.6487,11.4727 68.6487,15.2407 L68.6487,26.2647 C68.6487,30.0327 65.5807,33.0987 61.8087,33.0987 L40.9907,33.0987 C37.2187,33.0987 34.1497,30.0327 34.1497,26.2647 L34.1497,15.2407 Z M33.7347,29.3607 C34.9827,32.2707 37.8317,34.1497 40.9907,34.1497 L61.8087,34.1497 C66.1607,34.1497 69.7007,30.6127 69.7007,26.2647 L69.7007,15.2407 C69.7007,10.8937 66.1607,7.3557 61.8087,7.3557 L40.9907,7.3557 C37.3317,7.3557 34.0957,9.9467 33.2947,13.5187 L32.8927,15.3097 L31.9997,13.7057 C30.3287,10.7027 27.8137,8.2937 24.7277,6.7367 L24.3437,6.5427 L24.3437,6.1117 L24.3437,-0.0003 L11.0327,-0.0003 L11.0327,5.5407 L11.0327,6.0097 L10.5987,6.1877 C4.1607,8.8387 -0.0003,15.0367 -0.0003,21.9787 C-0.0003,25.0097 0.8257,28.0057 2.3887,30.6437 L2.5147,30.8557 L2.4787,31.1027 C2.4727,31.1467 2.4627,31.1897 2.4517,31.2307 L2.4517,52.5387 L31.6987,52.5387 L31.6987,31.2307 C31.6857,31.1847 31.6777,31.1437 31.6717,31.1027 L31.6357,30.8567 L31.7617,30.6437 C32.0077,30.2287 32.2417,29.7877 32.4607,29.3337 L33.1267,27.9447 L33.7347,29.3607 Z" id="Fill-13" fill="#21316A" mask="url(#mask-2)"></path>
        </g>
    </g>
</svg>