<svg xmlns="http://www.w3.org/2000/svg" viewBox="0 0 126.2 113.8">
  <title>old-grove-2</title>
  <g id="Layer_2" data-name="Layer 2">
    <g id="Layer_1-2" data-name="Layer 1">
      <g>
        <path d="M104.9,63.1H84V52.2h4.6v4.5a.6.6,0,0,0,1.2,0V52.2h4v4.5a.6.6,0,0,0,.6.6.5.5,0,0,0,.6-.6V52.2h4v4.5a.6.6,0,0,0,.6.6.5.5,0,0,0,.6-.6V52.3a4.4,4.4,0,0,1,4,4.4.6.6,0,0,0,.6.6.5.5,0,0,0,.6-.6A5.7,5.7,0,0,0,99.7,51H84V40.1h4.6v4.6a.6.6,0,0,0,1.2,0V40.1h4v4.6a.6.6,0,0,0,.6.6.6.6,0,0,0,.6-.6V40.2a4.4,4.4,0,0,1,4,4.5.6.6,0,0,0,.6.6.6.6,0,0,0,.6-.6,5.7,5.7,0,0,0-5.7-5.8H84V28h4.6v4.6a.6.6,0,0,0,1.2,0V28.1a4.5,4.5,0,0,1,4,4.5.6.6,0,0,0,.6.6.6.6,0,0,0,.6-.6,5.7,5.7,0,0,0-5.7-5.8H84v-9a.6.6,0,0,0-.6-.6.6.6,0,0,0-.6.6v9H77.6a5.8,5.8,0,0,0-5.8,5.8.6.6,0,0,0,.6.6.6.6,0,0,0,.6-.6,4.6,4.6,0,0,1,4-4.5v4.5a.6.6,0,0,0,.6.6.6.6,0,0,0,.6-.6V28h4.6V38.9H72.3a5.8,5.8,0,0,0-5.7,5.8.6.6,0,0,0,1.2,0,4.5,4.5,0,0,1,4-4.5v4.5a.6.6,0,0,0,.6.6.6.6,0,0,0,.6-.6V40.1h4v4.6a.6.6,0,0,0,.6.6.6.6,0,0,0,.6-.6V40.1h4.6V51H67.1a5.8,5.8,0,0,0-5.7,5.7.6.6,0,0,0,1.2,0,4.4,4.4,0,0,1,4-4.4v4.4a.6.6,0,0,0,1.2,0V52.2h4v4.5a.6.6,0,0,0,.6.6.5.5,0,0,0,.6-.6V52.2h4v4.5a.6.6,0,0,0,.6.6.5.5,0,0,0,.6-.6V52.2h4.6V63.1H61.9a5.8,5.8,0,0,0-5.7,5.7.6.6,0,1,0,1.2,0,4.4,4.4,0,0,1,4-4.4v4.4a.6.6,0,0,0,1.2,0V64.3h4v4.5a.6.6,0,0,0,1.2,0V64.3h4v4.5a.6.6,0,0,0,.6.6.5.5,0,0,0,.6-.6V64.3h4v4.5a.6.6,0,0,0,.6.6.5.5,0,0,0,.6-.6V64.3h4.6V88.5H77.9a.6.6,0,0,0-.6.6.6.6,0,0,0,.6.6h11a.6.6,0,0,0,.6-.6.5.5,0,0,0-.6-.6H84V64.3h4.6v4.5a.6.6,0,0,0,1.2,0V64.3h4v4.5a.6.6,0,0,0,.6.6.5.5,0,0,0,.6-.6V64.3h4v4.5a.6.6,0,0,0,.6.6.5.5,0,0,0,.6-.6V64.3h4v4.5a.6.6,0,0,0,.6.6.5.5,0,0,0,.6-.6V64.4a4.5,4.5,0,0,1,4.1,4.4.5.5,0,0,0,.6.6.6.6,0,0,0,.6-.6A5.8,5.8,0,0,0,104.9,63.1Z" fill="#001d3e"/>
        <g>
          <path d="M68.6,32.9a13.8,13.8,0,0,0-13.1-9.5,13.8,13.8,0,0,0-26.2,0,13.8,13.8,0,0,0-8.1,24.9A13.8,13.8,0,0,0,42.4,63.7,13.8,13.8,0,0,0,63.6,48.3,13.8,13.8,0,0,0,68.6,32.9Z" fill="#80dbff"/>
          <path d="M50.2,46.8a.6.6,0,1,0-.9-.9L43,52.2V40.1a.6.6,0,0,0-1.2,0V52.2l-6.3-6.3a.6.6,0,1,0-.9.9l7.2,7.1V84.5H37.1a.5.5,0,0,0-.6.6.6.6,0,0,0,.6.6H47.8a.6.6,0,0,0,.6-.6.6.6,0,0,0-.6-.6H43V53.9Z" fill="#001d3e"/>
        </g>
        <g>
          <path d="M79.3,76.2c0-8.3-15-48.1-15-48.1S49.4,67.9,49.4,76.2a15,15,0,1,0,29.9,0Z" fill="#feb804"/>
          <path d="M70.3,74.6l-5.4,5.3v-3c.1,0,.1,0,.1-.1l6.1-6.1a.6.6,0,0,0,0-.8.5.5,0,0,0-.8,0l-5.4,5.3V50.6a.5.5,0,0,0-.6-.6.6.6,0,0,0-.6.6V62.7l-4.3-4.3a.5.5,0,0,0-.8,0,.6.6,0,0,0,0,.8l5.1,5.2h0v3l-4.3-4.3a.5.5,0,0,0-.8,0,.6.6,0,0,0,0,.8l5.1,5.2h0V98.8H59a.6.6,0,0,0-.6.5.6.6,0,0,0,.6.6H69.7a.6.6,0,0,0,.6-.6.6.6,0,0,0-.6-.5H64.9V81.6H65l6.1-6.2a.6.6,0,0,0,0-.8A.5.5,0,0,0,70.3,74.6Z" fill="#001d3e"/>
        </g>
        <rect width="126.2" height="113.81" fill="none"/>
      </g>
    </g>
  </g>
</svg>
