<?xml version="1.0" encoding="UTF-8"?>
<svg viewBox="0 0 86 86" version="1.1" xmlns="http://www.w3.org/2000/svg" xmlns:xlink="http://www.w3.org/1999/xlink">
    <!-- Generator: Sketch 53 (72520) - https://sketchapp.com -->
    <title>old-grove</title>
    <desc>Created with Sketch.</desc>
    <defs>
        <polygon id="path-1" points="0 0.9351 44.0248 0.9351 44.0248 44.9591 0 44.9591"></polygon>
    </defs>
    <g id="old-grove" stroke="none" stroke-width="1" fill="none" fill-rule="evenodd">
        <g id="Group-38" transform="translate(3.000000, 7.000000)">
            <g id="Group-3" transform="translate(0.000000, 8.821600)">
                <mask id="mask-2" fill="white">
                    <use xlink:href="#path-1"></use>
                </mask>
                <g id="Clip-2"></g>
            </g>
            <path d="M22.0118,10.7967 C10.4478,10.7967 1.0388,20.2047 1.0388,31.7697 C1.0388,43.3337 10.4478,52.7417 22.0118,52.7417 C33.5758,52.7417 42.9848,43.3337 42.9848,31.7697 C42.9848,20.2047 33.5758,10.7967 22.0118,10.7967 M22.0118,53.7807 C9.8748,53.7807 -0.0002,43.9067 -0.0002,31.7697 C-0.0002,19.6317 9.8748,9.7567 22.0118,9.7567 C34.1498,9.7567 44.0248,19.6317 44.0248,31.7697 C44.0248,43.9067 34.1498,53.7807 22.0118,53.7807" id="Fill-1" fill="#D6FD8E"></path>
            <path d="M22.0118,14.0701 C12.2528,14.0701 4.3138,22.0101 4.3138,31.7691 C4.3138,41.5281 12.2528,49.4681 22.0118,49.4681 C31.7718,49.4681 39.7108,41.5281 39.7108,31.7691 C39.7108,22.0101 31.7718,14.0701 22.0118,14.0701 M22.0118,50.5081 C11.6798,50.5081 3.2738,42.1011 3.2738,31.7691 C3.2738,21.4371 11.6798,13.0311 22.0118,13.0311 C32.3448,13.0311 40.7498,21.4371 40.7498,31.7691 C40.7498,42.1011 32.3448,50.5081 22.0118,50.5081" id="Fill-4" fill="#D6FD8E"></path>
            <path d="M22.0118,17.4265 C14.1038,17.4265 7.6688,23.8605 7.6688,31.7695 C7.6688,39.6775 14.1038,46.1125 22.0118,46.1125 C29.9208,46.1125 36.3548,39.6775 36.3548,31.7695 C36.3548,23.8605 29.9208,17.4265 22.0118,17.4265 M22.0118,47.1515 C13.5308,47.1515 6.6298,40.2505 6.6298,31.7695 C6.6298,23.2875 13.5308,16.3865 22.0118,16.3865 C30.4938,16.3865 37.3948,23.2875 37.3948,31.7695 C37.3948,40.2505 30.4938,47.1515 22.0118,47.1515" id="Fill-6" fill="#D6FD8E"></path>
            <path d="M22.0118,20.8367 C15.9848,20.8367 11.0788,25.7407 11.0788,31.7697 C11.0788,37.7967 15.9848,42.7017 22.0118,42.7017 C28.0398,42.7017 32.9448,37.7967 32.9448,31.7697 C32.9448,25.7407 28.0398,20.8367 22.0118,20.8367 M22.0118,43.7407 C15.4098,43.7407 10.0398,38.3707 10.0398,31.7697 C10.0398,25.1677 15.4098,19.7967 22.0118,19.7967 C28.6138,19.7967 33.9848,25.1677 33.9848,31.7697 C33.9848,38.3707 28.6138,43.7407 22.0118,43.7407" id="Fill-8" fill="#D6FD8E"></path>
            <path d="M22.0118,24.2469 C17.8648,24.2469 14.4908,27.6219 14.4908,31.7689 C14.4908,35.9169 17.8648,39.2909 22.0118,39.2909 C26.1598,39.2909 29.5338,35.9169 29.5338,31.7689 C29.5338,27.6219 26.1598,24.2469 22.0118,24.2469 M22.0118,40.3309 C17.2908,40.3309 13.4498,36.4899 13.4498,31.7689 C13.4498,27.0489 17.2908,23.2069 22.0118,23.2069 C26.7328,23.2069 30.5738,27.0489 30.5738,31.7689 C30.5738,36.4899 26.7328,40.3309 22.0118,40.3309" id="Fill-10" fill="#D6FD8E"></path>
            <path d="M22.0118,71.2454 C21.7248,71.2454 21.4918,71.0134 21.4918,70.7254 L21.4918,31.7694 C21.4918,31.4824 21.7248,31.2494 22.0118,31.2494 C22.2988,31.2494 22.5318,31.4824 22.5318,31.7694 L22.5318,70.7254 C22.5318,71.0134 22.2988,71.2454 22.0118,71.2454" id="Fill-12" fill="#1E306E"></path>
            <path d="M26.6534,71.2454 L17.3714,71.2454 C17.0834,71.2454 16.8504,71.0134 16.8504,70.7254 C16.8504,70.4384 17.0834,70.2054 17.3714,70.2054 L26.6534,70.2054 C26.9404,70.2054 27.1734,70.4384 27.1734,70.7254 C27.1734,71.0134 26.9404,71.2454 26.6534,71.2454" id="Fill-14" fill="#1E306E"></path>
            <g id="Group-18" transform="translate(37.000000, 13.821600)" fill="#9AD553">
                <path d="M0.9845,21.2671 C0.9845,9.9361 10.1705,0.7501 21.5015,0.7501 C32.8335,0.7501 42.0185,9.9361 42.0185,21.2671 C42.0185,32.5981 32.8335,41.7841 21.5015,41.7841 C10.1705,41.7841 0.9845,32.5981 0.9845,21.2671" id="Fill-16"></path>
            </g>
            <path d="M58.5021,70.722 C58.7611,70.722 58.9711,70.512 58.9711,70.253 L58.9711,35.089 C58.9711,34.829 58.7611,34.619 58.5021,34.619 C58.2421,34.619 58.0321,34.829 58.0321,35.089 L58.0321,70.253 C58.0321,70.512 58.2421,70.722 58.5021,70.722" id="Fill-19" fill="#1E306E"></path>
            <path d="M54.3116,70.722 L62.6916,70.722 C62.9506,70.722 63.1606,70.512 63.1606,70.253 C63.1606,69.994 62.9506,69.785 62.6916,69.785 L54.3116,69.785 C54.0526,69.785 53.8426,69.994 53.8426,70.253 C53.8426,70.512 54.0526,70.722 54.3116,70.722" id="Fill-21" fill="#1E306E"></path>
            <path d="M58.5021,46.1829 C58.6221,46.1829 58.7411,46.1369 58.8331,46.0459 L64.5791,40.2999 C64.7621,40.1169 64.7621,39.8199 64.5791,39.6369 C64.3961,39.4539 64.0991,39.4539 63.9151,39.6369 L58.1701,45.3829 C57.9861,45.5659 57.9861,45.8629 58.1701,46.0459 C58.2621,46.1369 58.3821,46.1829 58.5021,46.1829" id="Fill-23" fill="#1E306E"></path>
            <path d="M58.5021,51.5179 C58.6221,51.5179 58.7411,51.4729 58.8331,51.3809 L64.5791,45.6349 C64.7621,45.4519 64.7621,45.1549 64.5791,44.9719 C64.3961,44.7889 64.0991,44.7889 63.9151,44.9719 L58.1701,50.7179 C57.9861,50.9009 57.9861,51.1979 58.1701,51.3809 C58.2621,51.4729 58.3821,51.5179 58.5021,51.5179" id="Fill-25" fill="#1E306E"></path>
            <path d="M67.3126,27.2434 C67.3126,12.7494 55.5626,0.9994 41.0696,0.9994 C26.5756,0.9994 14.8266,12.7494 14.8266,27.2434 C14.8266,41.7374 26.5756,53.4864 41.0696,53.4864 C55.5626,53.4864 67.3126,41.7374 67.3126,27.2434" id="Fill-27" fill="#BB8B9E"></path>
            <path d="M41.0685,72.8216 C40.7375,72.8216 40.4685,72.5526 40.4685,72.2216 L40.4685,27.2426 C40.4685,26.9116 40.7375,26.6426 41.0685,26.6426 C41.4005,26.6426 41.6695,26.9116 41.6695,27.2426 L41.6695,72.2216 C41.6695,72.5526 41.4005,72.8216 41.0685,72.8216" id="Fill-30" fill="#1E306E"></path>
            <path d="M46.4278,72.8216 L35.7098,72.8216 C35.3778,72.8216 35.1098,72.5526 35.1098,72.2216 C35.1098,71.8906 35.3778,71.6226 35.7098,71.6226 L46.4278,71.6226 C46.7598,71.6226 47.0288,71.8906 47.0288,72.2216 C47.0288,72.5526 46.7598,72.8216 46.4278,72.8216" id="Fill-32" fill="#1E306E"></path>
            <path d="M41.0685,41.4339 C40.9155,41.4339 40.7615,41.3749 40.6445,41.2579 L33.2955,33.9089 C33.0605,33.6749 33.0605,33.2949 33.2955,33.0599 C33.5305,32.8259 33.9105,32.8269 34.1435,33.0599 L41.4935,40.4109 C41.7275,40.6449 41.7275,41.0249 41.4935,41.2579 C41.3765,41.3749 41.2215,41.4339 41.0685,41.4339" id="Fill-34" fill="#1E306E"></path>
            <path d="M41.0685,48.2581 C40.9155,48.2581 40.7615,48.1991 40.6445,48.0821 L33.2955,40.7331 C33.0605,40.4981 33.0605,40.1181 33.2955,39.8851 C33.5305,39.6511 33.9105,39.6521 34.1435,39.8851 L41.4935,47.2351 C41.7275,47.4691 41.7275,47.8491 41.4935,48.0821 C41.3765,48.1991 41.2215,48.2581 41.0685,48.2581" id="Fill-36" fill="#1E306E"></path>
        </g>
    </g>
</svg>