<?xml version="1.0" encoding="UTF-8"?>
<svg  viewBox="0 0 86 86" version="1.1" xmlns="http://www.w3.org/2000/svg" xmlns:xlink="http://www.w3.org/1999/xlink">
    <!-- Generator: Sketch 53 (72520) - https://sketchapp.com -->
    <title>shade-tree</title>
    <desc>Created with Sketch.</desc>
    <defs>
        <polygon id="path-1" points="0.3046 0.8011 12.2216 0.8011 12.2216 2 0.3046 2"></polygon>
    </defs>
    <g id="shade-tree" stroke="none" stroke-width="1" fill="none" fill-rule="evenodd">
        <g id="Group-35" transform="translate(17.000000, 7.000000)">
            <path d="M51.7007,25.4383 C51.7007,11.3893 40.3107,0.0003 26.2627,0.0003 C12.2127,0.0003 0.8237,11.3893 0.8237,25.4383 C0.8237,39.4873 12.2127,50.8763 26.2627,50.8763 C40.3107,50.8763 51.7007,39.4873 51.7007,25.4383" id="Fill-1" fill="#BC899F"></path>
            <g id="Group-5" transform="translate(20.000000, 69.822000)">
                <mask id="mask-2" fill="white">
                    <use xlink:href="#path-1"></use>
                </mask>
                <g id="Clip-4"></g>
                <path d="M11.6216,2.0001 L0.9036,2.0001 C0.5726,2.0001 0.3046,1.7311 0.3046,1.4001 C0.3046,1.0691 0.5726,0.8011 0.9036,0.8011 L11.6216,0.8011 C11.9526,0.8011 12.2216,1.0691 12.2216,1.4001 C12.2216,1.7311 11.9526,2.0001 11.6216,2.0001" id="Fill-3" fill="#1E306E" mask="url(#mask-2)"></path>
            </g>
            <g id="Group-8" transform="translate(25.000000, 24.822000)" fill="#1E306E">
                <path d="M1.2622,47.0001 C0.9312,47.0001 0.6622,46.7311 0.6622,46.4001 L0.6622,0.6161 C0.6622,0.2851 0.9312,0.0171 1.2622,0.0171 C1.5932,0.0171 1.8622,0.2851 1.8622,0.6161 L1.8622,46.4001 C1.8622,46.7311 1.5932,47.0001 1.2622,47.0001" id="Fill-6"></path>
            </g>
            <path d="M22.5942,38.054 C22.5942,31.815 17.5362,26.757 11.2972,26.757 C5.0582,26.757 0.0002,31.815 0.0002,38.054 C0.0002,44.294 5.0582,49.351 11.2972,49.351 C17.5362,49.351 22.5942,44.294 22.5942,38.054" id="Fill-9" fill="#9AD553"></path>
            <path d="M48.8022,38.054 C48.8022,33.87 45.4102,30.479 41.2272,30.479 C37.0432,30.479 33.6522,33.87 33.6522,38.054 C33.6522,42.238 37.0432,45.63 41.2272,45.63 C45.4102,45.63 48.8022,42.238 48.8022,38.054" id="Fill-11" fill="#9AD553"></path>
            <path d="M26.2622,53.6189 C26.1092,53.6189 25.9552,53.5599 25.8382,53.4429 L10.8732,38.4779 C10.6392,38.2449 10.6392,37.8639 10.8732,37.6309 C11.1082,37.3959 11.4872,37.3959 11.7212,37.6309 L26.6862,52.5959 C26.9202,52.8289 26.9202,53.2099 26.6862,53.4429 C26.5692,53.5599 26.4152,53.6189 26.2622,53.6189" id="Fill-13" fill="#1E306E"></path>
            <path d="M26.2622,53.6189 C26.1092,53.6189 25.9552,53.5599 25.8382,53.4429 C25.6042,53.2099 25.6042,52.8289 25.8382,52.5959 L40.8032,37.6309 C41.0372,37.3959 41.4162,37.3959 41.6512,37.6309 C41.8852,37.8639 41.8852,38.2449 41.6512,38.4779 L26.6862,53.4429 C26.5692,53.5599 26.4152,53.6189 26.2622,53.6189" id="Fill-15" fill="#1E306E"></path>
            <path d="M19.5932,11.7586 L16.5262,11.7586 C16.1952,11.7586 15.9262,11.4896 15.9262,11.1586 C15.9262,10.8276 16.1952,10.5596 16.5262,10.5596 L19.5932,10.5596 C19.9242,10.5596 20.1932,10.8276 20.1932,11.1586 C20.1932,11.4896 19.9242,11.7586 19.5932,11.7586" id="Fill-17" fill="#1E306E"></path>
            <path d="M19.5932,14.7595 L16.5262,14.7595 C16.1952,14.7595 15.9262,14.4905 15.9262,14.1595 C15.9262,13.8285 16.1952,13.5605 16.5262,13.5605 L19.5932,13.5605 C19.9242,13.5605 20.1932,13.8285 20.1932,14.1595 C20.1932,14.4905 19.9242,14.7595 19.5932,14.7595" id="Fill-19" fill="#1E306E"></path>
            <path d="M11.9243,20.3611 L8.8573,20.3611 C8.5263,20.3611 8.2573,20.0921 8.2573,19.7611 C8.2573,19.4301 8.5263,19.1621 8.8573,19.1621 L11.9243,19.1621 C12.2553,19.1621 12.5243,19.4301 12.5243,19.7611 C12.5243,20.0921 12.2553,20.3611 11.9243,20.3611" id="Fill-21" fill="#1E306E"></path>
            <path d="M40.1333,19.8943 L37.0663,19.8943 C36.7353,19.8943 36.4663,19.6253 36.4663,19.2943 C36.4663,18.9633 36.7353,18.6953 37.0663,18.6953 L40.1333,18.6953 C40.4643,18.6953 40.7333,18.9633 40.7333,19.2943 C40.7333,19.6253 40.4643,19.8943 40.1333,19.8943" id="Fill-23" fill="#1E306E"></path>
            <path d="M34.0649,13.5584 L30.9979,13.5584 C30.6669,13.5584 30.3979,13.2894 30.3979,12.9584 C30.3979,12.6274 30.6669,12.3594 30.9979,12.3594 L34.0649,12.3594 C34.3959,12.3594 34.6649,12.6274 34.6649,12.9584 C34.6649,13.2894 34.3959,13.5584 34.0649,13.5584" id="Fill-25" fill="#1E306E"></path>
            <path d="M40.1333,22.8953 L37.0663,22.8953 C36.7353,22.8953 36.4663,22.6263 36.4663,22.2953 C36.4663,21.9643 36.7353,21.6963 37.0663,21.6963 L40.1333,21.6963 C40.4643,21.6963 40.7333,21.9643 40.7333,22.2953 C40.7333,22.6263 40.4643,22.8953 40.1333,22.8953" id="Fill-27" fill="#1E306E"></path>
            <path d="M7.5229,38.366 L4.4559,38.366 C4.1249,38.366 3.8559,38.097 3.8559,37.766 C3.8559,37.435 4.1249,37.167 4.4559,37.167 L7.5229,37.167 C7.8539,37.167 8.1229,37.435 8.1229,37.766 C8.1229,38.097 7.8539,38.366 7.5229,38.366" id="Fill-29" fill="#1E306E"></path>
            <path d="M43.8676,35.0984 L40.8006,35.0984 C40.4696,35.0984 40.2006,34.8294 40.2006,34.4984 C40.2006,34.1674 40.4696,33.8994 40.8006,33.8994 L43.8676,33.8994 C44.1986,33.8994 44.4676,34.1674 44.4676,34.4984 C44.4676,34.8294 44.1986,35.0984 43.8676,35.0984" id="Fill-31" fill="#1E306E"></path>
            <path d="M7.5229,41.367 L4.4559,41.367 C4.1249,41.367 3.8559,41.098 3.8559,40.767 C3.8559,40.436 4.1249,40.168 4.4559,40.168 L7.5229,40.168 C7.8539,40.168 8.1229,40.436 8.1229,40.767 C8.1229,41.098 7.8539,41.367 7.5229,41.367" id="Fill-33" fill="#1E306E"></path>
        </g>
    </g>
</svg>