<svg xmlns="http://www.w3.org/2000/svg" viewBox="0 0 126.2 113.8">
  <title>spring-sapling-2</title>
  <g id="Layer_2" data-name="Layer 2">
    <g id="Layer_1-2" data-name="Layer 1">
      <g>
        <g>
          <path d="M86.2,34.2a.7.7,0,0,0-.9.2,10.8,10.8,0,0,1-5.1,4.2,10.6,10.6,0,0,1-5.1.5,36.9,36.9,0,0,0,3.4-4.8.6.6,0,0,0-.3-.9.7.7,0,0,0-.9.2,43,43,0,0,1-4.5,6.2c.2-1.6.5-3.8.6-5.7s0-4.2-.2-6.3c-.1-.4-.4-.7-.8-.6a.7.7,0,0,0-.6.7,42.4,42.4,0,0,1,.2,6.2,57.1,57.1,0,0,1-.9,7.5,27.9,27.9,0,0,1-7.9,5.6V26.9a.7.7,0,0,0-1.4,0V67.2A29.7,29.7,0,0,1,54,58.9l-.2-.2c.1-.1.3-.2.3-.3l2.4-5.1a.7.7,0,0,0-.4-.9.7.7,0,0,0-.9.3l-2.1,4.8A42.7,42.7,0,0,1,49,48.8a9.9,9.9,0,0,0,3.5-4.1,19.4,19.4,0,0,0,1.3-8.5.6.6,0,0,0-.7-.6.6.6,0,0,0-.6.7,20.7,20.7,0,0,1-1.2,7.9,7.5,7.5,0,0,1-2.8,3.2A59.8,59.8,0,0,1,45.9,35c-.1-.4-.4-.7-.8-.6a.7.7,0,0,0-.6.7,71.3,71.3,0,0,0,3,13.6h.1a45.4,45.4,0,0,0,5.1,10.7,11.8,11.8,0,0,1-4.6-.9,12.3,12.3,0,0,1-6.4-6.3c-.1-.3-.5-.4-.9-.3a.7.7,0,0,0-.3.9,16,16,0,0,0,2.6,3.8,8.1,8.1,0,0,0-3.5,1.5,9.3,9.3,0,0,0-3.1,4.2.8.8,0,0,0,.5.9h.2a.6.6,0,0,0,.6-.5,7.8,7.8,0,0,1,2.6-3.5,7.1,7.1,0,0,1,3.9-1.4h0a10.8,10.8,0,0,0,3.3,2,12.5,12.5,0,0,0,5.1,1h.9a31.5,31.5,0,0,0,8.2,8.1V81a14.2,14.2,0,0,1-7.4-3,13.8,13.8,0,0,1-3.5-3.7.7.7,0,0,0-.9-.2.8.8,0,0,0-.2,1,18.1,18.1,0,0,0,2.9,3.3h-.3a5.3,5.3,0,0,1-3.1,1.7,5.5,5.5,0,0,1-3.9-.7.8.8,0,0,0-.9.3.7.7,0,0,0,.2.9,7.4,7.4,0,0,0,3.6,1h1.2a7.7,7.7,0,0,0,3.9-2.1.5.5,0,0,0,.2-.4,16.2,16.2,0,0,0,8.2,3.3V95.9H56.5a.7.7,0,0,0-.7.7.7.7,0,0,0,.7.6h12a.7.7,0,0,0,.7-.6.7.7,0,0,0-.7-.7H63.2V78.7h.5a23.9,23.9,0,0,0,6.5-3.4l.4.2a26,26,0,0,0,4,.3h2.9c1-.2,2-.3,3-.6s.6-.4.6-.8a.8.8,0,0,0-.9-.5l-2.9.5a28.1,28.1,0,0,1-5.8,0A31.9,31.9,0,0,0,76,69.8a.7.7,0,1,0-1.1-.9,25.3,25.3,0,0,1-3.6,3.7,27.4,27.4,0,0,1-.8-5,19.4,19.4,0,0,1,.8-6.6.7.7,0,0,0-.5-.8.6.6,0,0,0-.8.5,20.1,20.1,0,0,0-.8,6.9,16.1,16.1,0,0,0,.9,5.4c0,.2.1.3.3.4l-.9.7a24.2,24.2,0,0,1-6.3,3.4h0V48.7h.3a26.7,26.7,0,0,0,5.3-3.2,9.5,9.5,0,0,1,6.9,1.5,12,12,0,0,1,2.4,2.6.6.6,0,0,0,.6.3H79a.7.7,0,0,0,.2-.9,8.9,8.9,0,0,0-2.8-3,11.3,11.3,0,0,0-5.9-1.9,10.7,10.7,0,0,0,1.6-1.4,20.9,20.9,0,0,0,2-2.2,8.8,8.8,0,0,0,2.4.3,11.1,11.1,0,0,0,4.2-.8,11.7,11.7,0,0,0,5.7-4.6A.8.8,0,0,0,86.2,34.2Z" fill="#001d3e"/>
          <path d="M66.5,22.8a4,4,0,1,1-8,0c0-2.2,4-6.2,4-6.2S66.5,20.6,66.5,22.8Z" fill="#feb804"/>
          <path d="M85.9,77.5A4,4,0,1,1,83,70c2.1-.8,7.3,1.6,7.3,1.6S87.9,76.8,85.9,77.5Z" fill="#feb804"/>
          <path d="M81,67.1a4,4,0,0,1-5.3,2.2,3.9,3.9,0,0,1-2.2-5.2c.8-2.1,6-4.3,6-4.3S81.8,65,81,67.1Z" fill="#feb804"/>
          <path d="M43.7,47.4A4,4,0,0,1,36,49.9c-.7-2.1,1.9-7.2,1.9-7.2S43,45.3,43.7,47.4Z" fill="#feb804"/>
          <path d="M52.5,69.8a4,4,0,0,1-7.7,2.5c-.7-2.1,1.9-7.1,1.9-7.1S51.8,67.7,52.5,69.8Z" fill="#feb804"/>
          <path d="M47.7,29.7A4,4,0,0,1,40,32.2c-.7-2.1,1.9-7.1,1.9-7.1S47,27.6,47.7,29.7Z" fill="#feb804"/>
          <path d="M83.2,32.2a4,4,0,1,1-7.1-3.8c1-1.9,6.4-3.6,6.4-3.6S84.2,30.2,83.2,32.2Z" fill="#feb804"/>
        </g>
        <rect width="126.2" height="113.81" fill="none"/>
      </g>
    </g>
  </g>
</svg>
