<?xml version="1.0" encoding="UTF-8"?>
<svg  viewBox="0 0 86 86" version="1.1" xmlns="http://www.w3.org/2000/svg" xmlns:xlink="http://www.w3.org/1999/xlink">
    <!-- Generator: Sketch 53 (72520) - https://sketchapp.com -->
    <title>spring-sapling</title>
    <desc>Created with Sketch.</desc>
    <g id="spring-sapling" stroke="none" stroke-width="1" fill="none" fill-rule="evenodd">
        <g id="Group-5" transform="translate(22.000000, 14.000000)">
            <path d="M20.6253,0.9 C9.2343,0.9 0.0003,10.134 0.0003,21.525 C0.0003,32.916 9.2343,42.15 20.6253,42.15 L20.6253,0.9 Z" id="Fill-1" fill="#9AD553"></path>
            <path d="M21.5432,41.63 L21.1252,41.649 L21.1252,41.23 L21.1252,35.966 L21.1252,35.801 L21.2422,35.684 L26.1712,30.754 C26.2662,30.659 26.3172,30.533 26.3172,30.4 C26.3172,30.267 26.2662,30.141 26.1712,30.047 C26.0762,29.952 25.9512,29.9 25.8172,29.9 C25.6842,29.9 25.5602,29.951 25.4672,30.045 L21.8082,33.705 L21.1252,34.387 L21.1252,33.422 L21.1252,30.773 L21.1252,30.607 L21.2422,30.49 L26.1712,25.561 C26.3662,25.366 26.3662,25.048 26.1712,24.854 C26.0762,24.759 25.9512,24.707 25.8182,24.707 C25.6852,24.707 25.5602,24.759 25.4652,24.854 L21.8082,28.511 L21.1252,29.194 L21.1252,28.229 L21.1252,24.9 L21.1252,1.82 L21.1252,1.401 L21.5432,1.421 C32.3142,1.907 40.7512,10.738 40.7512,21.525 C40.7512,32.313 32.3142,41.144 21.5432,41.63 M20.6252,0.4 C20.3502,0.4 20.1262,0.624 20.1262,0.9 L20.1262,24.9 L20.1262,42.15 L20.1262,56.813 L20.1262,57.213 L19.7262,57.213 L15.1132,57.213 C14.8382,57.213 14.6132,57.437 14.6132,57.713 C14.6132,57.988 14.8382,58.213 15.1132,58.213 L26.1362,58.213 C26.4112,58.213 26.6362,57.988 26.6362,57.713 C26.6362,57.437 26.4112,57.213 26.1362,57.213 L21.5242,57.213 L21.1252,57.213 L21.1252,56.813 L21.1252,43.005 L21.1252,42.621 L21.5082,42.605 C32.8582,42.133 41.7502,32.873 41.7502,21.525 C41.7502,9.877 32.2732,0.4 20.6252,0.4" id="Fill-3" fill="#1E306E"></path>
        </g>
    </g>
</svg>