<svg xmlns="http://www.w3.org/2000/svg" viewBox="0 0 332 144.92">
  <title>espark-logo</title>
  <g id="eSpark_Learning" data-name="eSpark Learning">
    <g>
      <path d="M119.79,144.38V119.22h4.33v21.22h7v3.94Z" fill="#556674"/>
      <path d="M141.05,144.38V119.22H152.4V123h-7.23v6.68h6.7v3.48h-6.7v7.43h7.59v3.8Z" fill="#556674"/>
      <path d="M174.82,144.38l-1.25-5.33h-6.66l-1.29,5.33h-4.3l6.3-25.16h5.48l6.19,25.16Zm-4.48-21.14h-.14l-2.76,12.47H173Z" fill="#556674"/>
      <path d="M199.6,144.38l-3.94-10.73h-2.4v10.73h-4.15V119.22h7.23a9.91,9.91,0,0,1,2.9.41,5.63,5.63,0,0,1,2.27,1.3,6.07,6.07,0,0,1,1.49,2.24,8.66,8.66,0,0,1,.54,3.23,8.14,8.14,0,0,1-.38,2.58,7,7,0,0,1-.95,1.9,5.41,5.41,0,0,1-1.27,1.26,4.56,4.56,0,0,1-1.38.66l4.55,11.58Zm-.29-17.77a4.85,4.85,0,0,0-.32-1.88,3,3,0,0,0-2-1.78,4.78,4.78,0,0,0-1.29-.18h-2.43v7.75h2.43a3.61,3.61,0,0,0,2.6-1A3.9,3.9,0,0,0,199.31,126.61Z" fill="#556674"/>
      <path d="M225.73,144.38l-7.19-17.77h-.11l.07,17.77h-3.87V119.22h4.91l7.13,17.88h.1l0-17.88h3.72v25.16Z" fill="#556674"/>
      <path d="M242.78,144.38V119.22h4.29v25.16Z" fill="#556674"/>
      <path d="M270.49,144.38l-7.2-17.77h-.1l.07,17.77h-3.87V119.22h4.91l7.12,17.88h.11l0-17.88h3.73v25.16Z" fill="#556674"/>
      <path d="M299.87,144.35a11.32,11.32,0,0,1-3.81.57,8.29,8.29,0,0,1-7.07-3.63,12.85,12.85,0,0,1-1.9-4.16,22.18,22.18,0,0,1,0-10.66,13.44,13.44,0,0,1,1.86-4.18,8.87,8.87,0,0,1,2.94-2.73,7.67,7.67,0,0,1,3.86-1,8.91,8.91,0,0,1,3.91.8,6.93,6.93,0,0,1,2.68,2.26l-2.47,3a4.47,4.47,0,0,0-3.86-2.06,3.68,3.68,0,0,0-2.31.75,5.57,5.57,0,0,0-1.63,2,10.73,10.73,0,0,0-1,2.93,18.88,18.88,0,0,0-.32,3.52,19.52,19.52,0,0,0,.32,3.6,10.76,10.76,0,0,0,1,2.95,5.38,5.38,0,0,0,1.63,2A3.89,3.89,0,0,0,296,141a5.84,5.84,0,0,0,1.56-.2,3.59,3.59,0,0,0,1.13-.51v-6.51h-3.08V130.1h7v12.76A9.44,9.44,0,0,1,299.87,144.35Z" fill="#556674"/>
    </g>
    <g>
      <path d="M46,93.3H11.55c1.28,5.33,5.93,8.67,12.27,8.67,4.41,0,7.05-1.19,9.78-4.37H45.23c-3,9.07-12.19,14.09-21.17,14.09C10.5,111.69,0,101.66,0,88.76A23.15,23.15,0,0,1,23.41,65.52c13.24,0,22.94,10,22.94,23.72A17.06,17.06,0,0,1,46,93.3ZM23.57,75.23c-6.33,0-10.66,3.1-12.34,8.76H35.84C34.48,78.33,30.15,75.23,23.57,75.23Z" fill="#ffad33"/>
      <path d="M69.53,111.69C59.1,111.69,51,105,50,93.86H61.51c.48,4.93,3.12,7.32,8,7.32,4.73,0,8-3,8-7.17a7.46,7.46,0,0,0-2.72-6c-1.77-1.35-2.41-1.59-10.27-4.53s-12.35-8.6-12.35-16A16.93,16.93,0,0,1,69.44,50.79c9.55,0,17,6.37,17.56,16.72H75.62c-.32-4-2.57-6.21-6.26-6.21a5.77,5.77,0,0,0-6.09,6,6.18,6.18,0,0,0,3.29,5.33c.8.48,1,.56,6.57,2.63,12,4.46,15.32,9.63,15.32,17.59A18.61,18.61,0,0,1,69.53,111.69Z" fill="#0070bb"/>
      <path d="M119.24,111.69a19.09,19.09,0,0,1-13.63-5.18v18.87H95V66.55h9.78v5.18c3.45-4,8.58-6.21,14.59-6.21,12.83,0,22.13,9.63,22.13,22.92S132.07,111.69,119.24,111.69ZM118,75.23c-7.38,0-13,5.73-13,13.29,0,7.72,5.61,13.45,13.15,13.45,7.06,0,12.59-5.81,12.59-13.29C130.71,81,125.18,75.23,118,75.23Z" fill="#0070bb"/>
      <path d="M183.07,110.65v-5.73c-4.25,4.78-8.5,6.77-14.75,6.77-13,0-22.37-9.64-22.37-22.93,0-13.45,9.46-23.24,22.61-23.24,6.41,0,10.82,2.07,14.51,6.92V66.55h9.79v44.1ZM169.68,75.23c-7.62,0-13,5.73-13,13.77,0,7.72,5.37,13,13.15,13,8.1,0,12.91-5.73,12.91-13C182.75,80.88,177.3,75.23,169.68,75.23Z" fill="#0070bb"/>
      <path d="M211.46,86.13v24.52H200.8V66.55h9.78v4.3c2.81-4.06,5-5.33,9.62-5.33h.8V75.71C214.59,75.87,211.46,79.29,211.46,86.13Z" fill="#0070bb"/>
      <path d="M252.28,110.65,237.12,90v20.62H226.46V51.83h10.66v35.5l14.19-20.78h12.75L248.19,88.12l18.44,22.53Z" fill="#0070bb"/>
    </g>
    <g>
      <path d="M321.41,9.14A34.09,34.09,0,0,0,297,0a33.65,33.65,0,0,0-22.62,9.8,33.18,33.18,0,0,0-9.88,23.69l.14,3.09a33.13,33.13,0,0,0,4,13c0,.17,7.24,11.29,10.79,20.87a1.59,1.59,0,0,0,1.5,1h34.6a1.61,1.61,0,0,0,1.51-1c3.55-9.58,10.77-20.7,10.79-20.87a32.78,32.78,0,0,0,4-13l.15-3.09A33.16,33.16,0,0,0,321.41,9.14Z" fill="#ffc949" fill-rule="evenodd"/>
      <g>
        <path d="M298.25,110.48c-3.22,0-5.85-4.3-6.78-6a.49.49,0,0,1,.44-.71h12.66a.48.48,0,0,1,.44.71c-.93,1.75-3.55,6-6.76,6" fill="#a9b1b8" fill-rule="evenodd"/>
        <path d="M300.61,75.29H282.15a1,1,0,0,0-1,1.17l.45,3.06a1.38,1.38,0,0,0,1.34,1.18h18.46Z" fill="#a9b1b8" fill-rule="evenodd"/>
        <path d="M302,84.77H283.56A1,1,0,0,0,282.5,86l.31,3a1.34,1.34,0,0,0,1.31,1.18h18.46Z" fill="#a9b1b8" fill-rule="evenodd"/>
        <path d="M304.48,94.24H284.4a1.13,1.13,0,0,0-1.14,1.18l.76,3a1.22,1.22,0,0,0,1.21,1.19h21Z" fill="#a9b1b8" fill-rule="evenodd"/>
        <path d="M299.75,80.7h13.84a1.39,1.39,0,0,0,1.35-1.18l.44-3.06a1,1,0,0,0-1.05-1.17H297.4Z" fill="#556674" fill-rule="evenodd"/>
        <path d="M302.58,90.18h9.79A1.34,1.34,0,0,0,313.68,89l.3-3a1,1,0,0,0-1.06-1.18h-12.5Z" fill="#556674" fill-rule="evenodd"/>
        <path d="M306.23,99.66h5a1.22,1.22,0,0,0,1.21-1.19l.76-3a1.13,1.13,0,0,0-1.15-1.18h-7.6Z" fill="#556674" fill-rule="evenodd"/>
      </g>
      <path d="M321.41,9.14a33.77,33.77,0,0,0-10.13-6.49c-.61-.25-1.22-.49-1.85-.71L282,50.53l13.07,21h20.46a1.61,1.61,0,0,0,1.51-1c3.55-9.58,10.77-20.7,10.79-20.87a32.78,32.78,0,0,0,4-13l.15-3.09A33.16,33.16,0,0,0,321.41,9.14Z" fill="#ffad33"/>
      <g>
        <path d="M302.79,13.7a23.65,23.65,0,0,0-3.8-.34,22.5,22.5,0,0,0-22.58,22.42A22.2,22.2,0,0,0,282,50.53h0Z" fill="#ffe39c"/>
        <path d="M299,58.2a22.4,22.4,0,0,0,3.8-44.5L282,50.53h0A22.58,22.58,0,0,0,299,58.2Z" fill="#ffc949"/>
      </g>
      <path d="M312.5,13.89l-4.55.39a1.93,1.93,0,0,0-1.69,3l2.06,4-3.68-3.82a2,2,0,0,0-3.2.21L297.57,23l2.46-6a2,2,0,0,0-1.5-2.82L293.32,13l4.55-.38a1.94,1.94,0,0,0,1.69-3l-2.06-4,3.68,3.82a2,2,0,0,0,3.2-.21L308.25,4l-2.46,6a2,2,0,0,0,1.5,2.82Z" fill="#f3f5f7" fill-rule="evenodd"/>
    </g>
  </g>
</svg>
