<svg xmlns="http://www.w3.org/2000/svg" viewBox="0 0 332 144.92">
  <g id="Layer_2" data-name="Layer 2">
    <g id="Layer_1-2" data-name="Layer 1">
      <g>
        <rect width="332" height="144.92" fill="none"/>
        <g>
          <g>
            <path d="M83.45,112V78.27h7.1v31.61c0,9.17,4.35,14.28,11.82,14.28s13.06-5.86,13.06-14.57V78.27h7.09v51.38h-7.09v-8.42c-2.84,5.11-7.48,9.37-15.23,9.37-10.51,0-16.75-7.19-16.75-18.64" fill="#5e6970"/>
            <path d="M141.45,120.09v9.56h-7.1V60.2h7.1V88.11c3.4-5.86,8.61-10.88,16.65-10.88,10.5,0,20.53,9.09,20.53,26.12v.94c0,17-10,26.21-20.53,26.21-8.23,0-13.34-4.92-16.65-10.6m29.9-15.7v-.76c0-12.49-6.72-20-14.57-20s-15.62,7.76-15.62,19.87v.94c0,12,7.48,19.78,15.62,19.78s14.57-7,14.57-19.68Z" fill="#5e6970"/>
            <polyline points="190.46 67.3 168.41 67.3 168.41 60.39 219.98 60.39 219.98 67.3 197.84 67.3 197.84 129.65 190.46 129.65 190.46 67.3" fill="#5e6970"/>
            <path d="M212.69,78.27h7.1V89.63c3-7.19,9.27-12.4,17.69-12v7.67h-.38c-9.55,0-17.22,6.71-17.22,20v24.41h-7.09V78.27" fill="#5e6970"/>
            <path d="M241.64,114.8v-.38c0-10.6,7.57-16.56,18.93-16.56a42.22,42.22,0,0,1,13.24,2.08V96.82c0-8.33-4.82-12.77-13.15-12.77a27.86,27.86,0,0,0-13.15,3.4l-2.27-5.86a35.25,35.25,0,0,1,16.18-4.17c6.34,0,11.07,1.8,14.38,5.11s4.92,7.85,4.92,13.91v33.21h-7v-7.47a17.69,17.69,0,0,1-15.71,8.6c-8.61,0-16.46-5.86-16.46-16m32.26-2.94v-6.53a36.31,36.31,0,0,0-12.39-2.08c-8.23,0-12.77,4.26-12.77,10.79v.28c0,6.44,4.82,10.5,11,10.5,8,.1,14.29-5.48,14.29-13Z" fill="#5e6970"/>
          </g>
          <g>
            <path d="M292.92,78.27H300v8.42c2.84-5.1,7.47-9.36,15.23-9.36,10.51,0,16.75,7.19,16.75,18.73v33.59h-7.1V98c0-9.17-4.35-14.28-11.82-14.28S300,89.63,300,98.33v31.32h-7.1V78.27" fill="#5e6970"/>
            <path d="M16.46,91.43H0v7.38H16.46a11.12,11.12,0,0,1,0-7.38" fill="#a3cf62"/>
          </g>
          <g>
            <path d="M22.23,84.9,10.6,73.26l-5.3,5.3L16.94,90.2a11.32,11.32,0,0,1,5.2-5.3" fill="#a3cf62"/>
            <path d="M16.94,100,5.3,111.67l5.2,5.21,11.73-11.64a11.35,11.35,0,0,1-5.29-5.2" fill="#a3cf62"/>
            <path d="M37.28,90.2,48.92,78.56l-5.21-5.21L32.07,84.9a11.21,11.21,0,0,1,5.21,5.3" fill="#a3cf62"/>
            <path d="M32,105.24l11.64,11.64,5.2-5.21L37.28,100a11.37,11.37,0,0,1-5.3,5.2" fill="#a3cf62"/>
            <path d="M23.46,105.71v23.94h7.38V105.71a11,11,0,0,1-7.38,0" fill="#5e6970"/>
            <path d="M30.84,84.42V60.58H23.46V84.42a11.25,11.25,0,0,1,7.38,0" fill="#5e6970"/>
            <path d="M64.15,60.58v31H37.85a11.32,11.32,0,0,1,0,6.91h26.3v31.13h7.38V60.58H64.15" fill="#5e6970"/>
          </g>
        </g>
      </g>
    </g>
  </g>
</svg>
