<svg xmlns="http://www.w3.org/2000/svg" viewBox="0 0 332.1 144.92">
  <title>no-red-ink-logo</title>
  <g id="Layer_2" data-name="Layer 2">
    <g id="Layer_1-2" data-name="Layer 1">
      <g>
        <rect width="332" height="144.92" fill="none"/>
        <g>
          <path d="M13.24,73.9v6.28h.23c2.91-5.28,7.85-7.74,13.68-7.74,8.63,0,13.68,4.71,13.68,15.25v39.82H27v-37C27,85.11,25.24,83,21.2,83c-4.71,0-7.29,2.92-7.29,8.86v35.67H.12V73.9Z" fill="#ed396f"/>
          <path d="M69.32,72.55c16.6-.34,21.2,9.53,21.2,28.26,0,18.4-5.39,28.27-21.2,28.27-16.6.33-21.2-9.54-21.2-28.27C48.23,82.42,53.62,72.55,69.32,72.55Zm0,47.11c5.61,0,7.4-5.5,7.4-18.85S74.93,82,69.32,82c-6.73,0-7.4,7.85-7.4,18.84S62.59,119.66,69.32,119.66Z" fill="#ed396f"/>
          <path d="M99,74.68H105V83h.23c2.24-5.83,7.18-9.53,13.35-9.53a7.8,7.8,0,0,1,2.13.33v6a13.38,13.38,0,0,0-2.92-.34c-6.62,0-12.79,4.82-12.79,15v33.09H99V74.68" fill="#3e4151"/>
          <path d="M159.49,110c-.89,11.33-7.06,18.73-17.05,18.73-11.21,0-17.72-7.74-17.72-27.7,0-18.4,6.62-27.59,18.29-27.59s17,8.07,17,25.79v2.25H131V104c0,15.26,5.39,20,11.33,20,6.28,0,10.21-4.49,11.22-13.8l5.94-.11Zm-5.94-13.68c-.23-13.13-3.93-18-11.33-18s-11.1,4.82-11.33,18Z" fill="#3e4151"/>
          <path d="M197.29,118.87h-.23a13.11,13.11,0,0,1-13,10c-11.66,0-16.93-9.42-16.93-27.7s5.27-27.59,16.93-27.59c6.62,0,11.11,3.59,12.34,9.2h.23V56.4h5.94v71.22h-5.38v-8.75Zm-12.23,4.93c6.06,0,11.56-3.14,11.56-22.76s-5.5-22.66-11.56-22.66S173.51,81.52,173.51,101C173.51,120.78,179.12,123.8,185.06,123.8Z" fill="#3e4151"/>
          <path d="M213,55.61h13.8V67.39H213Zm0,18.29h13.8v53.72H213Z" fill="#ed396f"/>
          <path d="M236.43,73.9h13.12v6.28h.23c2.91-5.28,7.85-7.74,13.68-7.74,8.64,0,13.68,4.71,13.68,15.25v39.82H263.35v-37c0-5.38-1.8-7.51-5.83-7.51-4.71,0-7.29,2.92-7.29,8.86v35.67h-13.8V73.9" fill="#ed396f"/>
          <polyline points="300.58 56.4 300.58 93.97 300.7 93.97 314.6 73.9 329.75 73.9 314.27 95.09 332.1 127.62 316.96 127.62 305.41 105.52 300.58 111.92 300.58 127.62 286.79 127.62 286.79 56.4 300.58 56.4" fill="#ed396f"/>
        </g>
      </g>
    </g>
  </g>
</svg>
