
<svg viewBox="0 0 127 114" version="1.1" xmlns="http://www.w3.org/2000/svg" xmlns:xlink="http://www.w3.org/1999/xlink">
    <g stroke="none" stroke-width="1" fill="none" fill-rule="evenodd">
        <g>
            <rect fill="none" x="0" y="0" width="126.2" height="113.81"></rect>
            <path d="M90.7610485,46.6878669 C94.2011931,46.6878669 97,49.4902759 97,52.9343019 C97,56.3787722 94.2011931,59.1816255 90.7610485,59.1816255 L83.9406766,59.1816255 L83.9406766,61.1109199 C83.9406766,64.9135228 80.8507157,68.0074143 77.0523983,68.0074143 L68.5117322,68.0074143 L68.5117322,96.2483387 L73.8634628,96.2483387 C74.236282,96.2483387 74.538088,96.5509295 74.538088,96.923725 C74.538088,97.2974091 74.236282,97.6 73.8634628,97.6 L61.8089759,97.6 C61.4361567,97.6 61.1339068,97.2974091 61.1339068,96.923725 C61.1339068,96.5509295 61.4361567,96.2483387 61.8089759,96.2483387 L67.1615941,96.2483387 L67.1615941,74.3436045 L58.6200403,74.3436045 C54.821723,74.3436045 51.7313182,71.249713 51.7313182,67.4466659 L51.7313182,65.5178158 L48.0958874,65.5178158 C45.7275979,65.5178158 43.8009216,63.5889657 43.8009216,61.2180042 C43.8009216,58.8470427 45.7275979,56.9181926 48.0958874,56.9181926 C48.6937296,56.9181926 49.2760376,57.0439389 49.8184008,57.2865448 C50.6541371,54.7689533 53.005561,53.0245015 55.7222588,53.0245015 C59.1628473,53.0245015 61.962098,55.8269105 61.962098,59.2709365 C61.962098,62.7154068 59.1628473,65.5178158 55.7222588,65.5178158 L53.0814563,65.5178158 L53.0814563,67.4466659 C53.0814563,70.5045664 55.5660299,72.9923875 58.6200403,72.9923875 L67.1615941,72.9923875 L67.1615941,48.9157531 L55.205638,48.9157531 C51.4073206,48.9157531 48.3169159,45.8218616 48.3169159,42.0188145 L48.3169159,40.0899644 L35.2398392,40.0899644 C31.7996945,40.0899644 29,37.2875554 29,33.8430851 C29,30.3990591 31.7996945,27.5966501 35.2398392,27.5966501 C35.2518226,27.5966501 35.2633623,27.5966501 35.2753458,27.5970944 C35.6193158,25.5153937 37.3844371,23.9717805 39.502849,23.9717805 C40.2906515,23.9717805 41.0589253,24.19528 41.7255615,24.6045109 C42.8959474,19.6244253 47.3702215,16 52.5808134,16 C58.7354368,16 63.7427535,21.0129663 63.7427535,27.1740893 C63.7427535,27.3820372 63.7352083,27.5882077 63.7236687,27.7930453 C66.4940703,28.4564347 68.5117322,30.9522538 68.5117322,33.8430851 C68.5117322,34.1376779 68.4842146,34.4247171 68.4442697,34.7082016 C68.4864337,34.7961796 68.5117322,34.8934886 68.5117322,34.9974625 L68.5117322,37.6230269 L76.0462304,37.6230269 C79.1011285,37.6230269 81.5865897,35.1360944 81.5865897,32.0781939 L81.5865897,30.1493438 L78.403424,30.1493438 C74.9632794,30.1493438 72.1644725,27.3469349 72.1644725,23.9029089 C72.1644725,20.4579942 74.9632794,17.6551409 78.403424,17.6551409 C81.1210096,17.6551409 83.4715458,19.400037 84.3077259,21.9185171 C84.8492014,21.6759113 85.4315095,21.550165 86.0289078,21.550165 C88.3971973,21.550165 90.3238736,23.4785707 90.3238736,25.8495323 C90.3238736,28.2204938 88.3971973,30.1493438 86.0289078,30.1493438 L82.9358401,30.1493438 L82.9358401,32.0781939 C82.9358401,35.8812411 79.8458792,38.9746883 76.0462304,38.9746883 L68.5117322,38.9746883 L68.5117322,51.7603738 C69.2813375,51.0321118 70.3159107,50.5820023 71.4556722,50.5820023 C71.6669364,50.5820023 71.8755377,50.597554 72.081032,50.6277686 C72.0677171,50.4295961 72.0610596,50.2349782 72.0610596,50.0416933 C72.0610596,45.0016227 76.155857,40.9013167 81.1902474,40.9013167 C85.0293974,40.9013167 88.3829947,43.2425079 89.7229246,46.7905078 C90.0864233,46.7211919 90.4250674,46.6878669 90.7610485,46.6878669 Z M82.59187,61.1109199 L82.59187,59.1816255 L71.4556722,59.1816255 C70.3159107,59.1816255 69.2813375,58.7310717 68.5117322,58.0032541 L68.5117322,66.6557529 L77.0523983,66.6557529 C80.1072965,66.6557529 82.59187,64.1688204 82.59187,61.1109199 Z M55.205638,47.5640918 L67.1615941,47.5640918 L67.1615941,37.7118935 C66.0178381,39.1577535 64.2527168,40.0899644 62.271893,40.0899644 L49.6666101,40.0899644 L49.6666101,42.0188145 C49.6666101,45.0771593 52.1511837,47.5640918 55.205638,47.5640918 Z M30.350138,33.8430851 C30.350138,36.5424088 32.5440014,38.738303 35.2398392,38.738303 L62.271893,38.738303 C64.9677308,38.738303 67.1615941,36.5424088 67.1615941,33.8430851 C67.1615941,31.4108056 65.3334486,29.3353256 62.9105678,29.0149614 C62.5457376,28.9669734 62.2869833,28.6363896 62.3278159,28.2707034 C62.3677608,27.9107936 62.3926154,27.5451074 62.3926154,27.1740893 C62.3926154,21.7576686 57.9911299,17.351217 52.5808134,17.351217 C47.649392,17.351217 43.4680473,21.0445139 42.854671,25.9419535 C42.8218274,26.2041101 42.6394123,26.4236106 42.3873155,26.5031463 C42.1347749,26.5791272 41.8600427,26.5062566 41.6833974,26.3098614 C41.1121852,25.6735763 40.3376977,25.3234418 39.502849,25.3234418 C37.8788664,25.3234418 36.5580213,26.6462215 36.5580213,28.2724808 C36.5624596,28.4679873 36.4852328,28.6812672 36.3405434,28.8132342 C36.1949664,28.9447568 36.0010117,29.0305131 35.8092761,29.0082964 L35.6308555,28.9851911 C35.5025879,28.9678621 35.3734327,28.9478671 35.2398392,28.9478671 C32.5440014,28.9478671 30.350138,31.1437614 30.350138,33.8430851 Z" id="Path-2" fill="#001D3E"></path>
            <path d="M90.7610485,57.8299642 L71.4556722,57.8299642 C69.8325773,57.8299642 68.5117322,56.5076288 68.5117322,54.8813696 C68.5117322,53.255999 69.8325773,51.9332193 71.4556722,51.9332193 C71.8555652,51.9332193 72.2443623,52.0131993 72.6114117,52.1704932 C72.840873,52.2673579 73.1036218,52.2322555 73.2966889,52.0780719 C73.4910875,51.9229997 73.5856237,51.6741731 73.5416843,51.4297899 C73.4529179,50.9383575 73.4098661,50.484249 73.4098661,50.0416933 C73.4098661,45.7467693 76.9006077,42.252978 81.1902474,42.252978 C84.643707,42.252978 87.635581,44.4755323 88.6355353,47.7840367 C88.7407236,48.1346155 89.1055538,48.3394531 89.4615073,48.2390338 C89.9537174,48.1026235 90.3664815,48.0395282 90.7610485,48.0395282 C93.4577739,48.0395282 95.6511935,50.2354225 95.6511935,52.9343019 C95.6511935,55.6340699 93.4577739,57.8299642 90.7610485,57.8299642 L90.7610485,57.8299642 Z" id="Path" fill="#38CBCA"></path>
            <path d="M45.1510596,61.2180042 C45.1510596,59.5921893 46.4719048,58.269854 48.0958874,58.269854 C48.7230225,58.269854 49.3288537,58.4746915 49.8490252,58.863483 C50.0367663,59.0052253 50.2857562,59.0367729 50.5027903,58.950128 C50.720712,58.8630387 50.8778286,58.6693094 50.9177735,58.4373675 C51.3234363,56.0841793 53.3442051,54.3761628 55.7222588,54.3761628 C58.4185404,54.3761628 60.61196,56.5720571 60.61196,59.2709365 C60.61196,61.9698158 58.4185404,64.1661544 55.7222588,64.1661544 L48.0958874,64.1661544 C46.4719048,64.1661544 45.1510596,62.8438191 45.1510596,61.2180042 L45.1510596,61.2180042 Z" id="Path" fill="#71DE62"></path>
            <path d="M73.5132791,23.9029089 C73.5132791,21.2031408 75.7071424,19.0068022 78.403424,19.0068022 C80.7814778,19.0068022 82.8026904,20.7152631 83.2079094,23.0693399 C83.2474104,23.3008375 83.4045271,23.4950111 83.6233364,23.5821003 C83.8408143,23.6678566 84.0889166,23.636309 84.2766577,23.4954554 C84.7963854,23.1066639 85.4017727,22.901382 86.0289078,22.901382 C87.6533343,22.901382 88.9750671,24.2237174 88.9750671,25.8495323 C88.9750671,27.4757915 87.6533343,28.7981268 86.0289078,28.7981268 L78.403424,28.7981268 C75.7071424,28.7981268 73.5132791,26.6017882 73.5132791,23.9029089 L73.5132791,23.9029089 Z" id="Path" fill="#FEB804"></path>
        </g>
    </g>
</svg>